<svg xmlns="http://www.w3.org/2000/svg" width="550" height="550" fill="none" viewBox="0 0 550 550">
  <path fill="#FAFAFA" d="M275 550c151.878 0 275-67.9 275-151.659 0-83.759-123.122-151.659-275-151.659S0 314.582 0 398.341C0 482.1 123.122 550 275 550Zm265.796-310.758-2.937 1.709-99.816-56.335 2.937-1.709 99.816 56.335Z"/>
  <path fill="#fff" d="m440.98 182.907 96.879 54.672V72.493L440.98 17.845v165.062Z"/>
  <path fill="#F0F0F0" d="m432.502 187.755 110.899 62.589V69.366L432.502 6.778v180.977Zm5.541-171.584 99.817 56.334v168.446l-99.817-56.335V16.171Z"/>
  <path fill="#E0E0E0" d="m438.043 184.616 2.937-1.709V17.845l-2.937-1.686v168.457Z"/>
  <path fill="#FAFAFA" d="M537.859 198.438v3.371l-99.816-56.334 2.937-1.709 96.879 54.672Zm0-96.405v3.371l-99.816-56.335 2.937-1.72 96.879 54.684ZM432.501 6.778l2.985-1.663 110.887 62.589-2.973 1.662L432.501 6.778Z"/>
  <path fill="#E0E0E0" d="m546.373 67.704-2.973 1.662v180.966l2.973-1.674V67.704Zm-51.204-19.309-2.985-1.686v168.469l2.985-1.662V48.395Z"/>
  <path fill="#F0F0F0" d="m486.655 43.605 5.529 3.104v168.469l-5.529-3.127V43.606Z"/>
  <path fill="#F0F0F0" d="M432.502 45.942v6.243l110.899 62.588v-6.242L432.502 45.942Zm0 96.394v6.243l110.899 62.589v-6.243l-110.899-62.589Z"/>
  <path fill="#FAFAFA" d="m492.184 79.62 2.985-1.686 42.69 24.099v3.371L492.184 79.62Zm0 96.382 2.985-1.686 42.69 24.087v3.372l-45.675-25.773Z"/>
  <path fill="#FFA8A7" d="M44.771 444.666a.633.633 0 0 1-.273-.453c-2.379-25.04-24.152-43.163-33.463-50.906-1.498-1.244-2.687-2.232-3.448-2.964-3.413-3.255-4.9-7.533-3.96-11.439a10.517 10.517 0 0 1 2.768-4.725 10.874 10.874 0 0 1 4.807-2.75c9.715-3.104 24.971 8.684 34.71 26.807 13.664 25.412 7.254 44.175 7.135 44.338a.618.618 0 0 1-.44.395l-7.36 1.848a.484.484 0 0 1-.262 0 .507.507 0 0 1-.214-.151Zm0-45.907c-9.513-17.611-24.044-29.062-33.2-26.214a9.57 9.57 0 0 0-4.28 2.432 9.251 9.251 0 0 0-2.451 4.206 10.807 10.807 0 0 0 .403 5.596 11.024 11.024 0 0 0 3.164 4.68c.737.698 1.915 1.674 3.39 2.907 9.346 7.765 31.083 25.842 33.83 51.01l6.303-1.581c.82-2.488 5.291-19.89-7.135-43.012l-.024-.024Z"/>
  <path fill="#FFA8A7" d="M49.219 443.748h.083a.63.63 0 0 0 .654-.616c.547-29.249-20.216-57.439-34.105-63.24a.653.653 0 0 0-.844.337.619.619 0 0 0-.002.483.64.64 0 0 0 .347.343c13.782 5.742 33.843 34.34 33.296 62.077 0 .154.057.302.163.416a.638.638 0 0 0 .408.2Z"/>
  <path fill="#FFA8A7" d="M52.405 442.946a.74.74 0 0 0 .274 0l4.994-1.476a.694.694 0 0 0 .428-.407c.083-.279 8.895-28.237 2.378-65.879-3.305-19.181-14.745-37.886-27.195-44.489-5.946-3.162-11.892-3.557-17.48-1.162-3.187 1.348-5.173 3.348-5.946 5.917-2.07 7.126 5.494 17.728 13.508 28.958 5.601 7.858 11.392 15.972 14.044 23.145.057.154.174.28.326.35a.651.651 0 0 0 .483.022.629.629 0 0 0 .358-.318.606.606 0 0 0 .022-.473c-2.699-7.323-8.538-15.519-14.186-23.435-7.837-10.986-15.233-21.344-13.342-27.9.654-2.232 2.378-3.906 5.196-5.127 5.244-2.232 10.703-1.848 16.375 1.163 12.14 6.428 23.307 24.761 26.553 43.593 6.065 35.224-1.332 61.822-2.271 64.984l-4.673 1.371a.639.639 0 0 0-.371.307.614.614 0 0 0-.046.472.622.622 0 0 0 .571.384Z"/>
  <path fill="#FFA8A7" d="M53.642 425.148a.65.65 0 0 0 .457-.151.622.622 0 0 0 .22-.419c3.77-45.256-22.058-81.491-29.728-87.71a.655.655 0 0 0-.903.082.605.605 0 0 0 .083.871c7.527 6.127 32.975 41.85 29.253 86.653a.594.594 0 0 0 .154.473.618.618 0 0 0 .465.201Z"/>
  <path fill="#F0F0F0" d="m9.335 83.421 2.105 1.186 52.524-29.655-2.105-1.186L9.335 83.42Z"/>
  <path fill="#FAFAFA" d="m61.859 53.766-50.42 28.458V39.502l50.42-28.458v42.722Z"/>
  <path fill="#EBEBEB" d="M66.069 6.301 9.334 38.316v49.836l56.733-32.015V6.301Zm-2.105 48.65L11.44 84.595V39.502L63.964 9.893v45.058Z"/>
  <path fill="#E0E0E0" d="m63.964 54.951-2.105-1.185V11.044l2.105-1.186v45.093Z"/>
  <path fill="#F5F5F5" d="m66.069 6.301-2.105-1.186L7.23 37.13l2.105 1.186L66.068 6.301Z"/>
  <path fill="#E0E0E0" d="m7.23 37.13 2.105 1.186v49.848L7.23 86.978V37.13Zm44.747 9.451c1.95-1.162 3.568-.209 3.568 2a7.547 7.547 0 0 1-1.048 3.422 7.75 7.75 0 0 1-2.52 2.588c-1.962 1.163-3.567.21-3.567-2a7.547 7.547 0 0 1 1.048-3.422 7.75 7.75 0 0 1 2.52-2.587ZM23.32 37.56l26.695-15.112c.75-.418 1.344-.081 1.344.756v.081a2.845 2.845 0 0 1-.381 1.323 2.922 2.922 0 0 1-.963 1.002L23.32 40.722c-.75.43-1.344.082-1.344-.755v-.081c.015-.466.145-.92.379-1.325a2.9 2.9 0 0 1 .965-1Z"/>
  <path fill="#F0F0F0" d="m19.086 49.418 35.15-19.762c.738-.419 1.344-.233 1.344.43-.062.394-.216.77-.449 1.098-.232.328-.538.6-.894.796L19.062 51.825c-.75.419-1.344.221-1.332-.441a2.66 2.66 0 0 1 .445-1.136 2.75 2.75 0 0 1 .91-.829Zm0 4.755 35.15-19.867c.738-.419 1.344-.233 1.344.418a2.604 2.604 0 0 1-.436 1.131 2.69 2.69 0 0 1-.907.822L19.062 56.556c-.75.43-1.344.232-1.332-.43.06-.405.213-.791.448-1.13.235-.338.545-.62.908-.823Zm0 4.743 35.15-19.844c.738-.419 1.344-.221 1.344.43a2.603 2.603 0 0 1-.439 1.124 2.677 2.677 0 0 1-.904.817L19.062 61.3c-.75.418-1.344.22-1.332-.43.06-.405.213-.791.448-1.13.235-.338.545-.62.908-.823Z"/>
  <path fill="#E0E0E0" d="M45.663 56.73c-.27.143-.572.22-.88.221-.75 0-.678-.744-.654-1.255 0-.245-.321-.593-.5-.291-.451.802-1.034 1.546-1.521 2.325-.298.476-.869 1.558-1.594 1.406-.297-.07-.392-.383-.392-.778a3.8 3.8 0 0 0 .463-2.14c0-.22-.416-.5-.535-.197-.248.634-.4 1.3-.452 1.976a12.77 12.77 0 0 1-1.13 1.65c-.249.315-.463.675-.737.966 0 .07-.19.256-.285.279-.095.023-.226-.105-.262-.268a1.857 1.857 0 0 1 .12-.709v-.058c0-.232-.31-.581-.44-.29a10.271 10.271 0 0 1-2.07 3.37l-.13.105v-.406a3.066 3.066 0 0 0-.167-.93c0-.152-.321-.384-.464-.186a16.298 16.298 0 0 1-2.378 3.161 4.89 4.89 0 0 1-.488.338c-.166-.093.084-.93.12-1.047.094-.383.225-.744.344-1.162a4.58 4.58 0 0 0 .286-.918c0-.28-.452-.71-.548-.338 0 .163-.178.535-.32 1a23.523 23.523 0 0 1-1.974 3.267 7.525 7.525 0 0 1-2.747 2.58c-.31.163-.892.407-1.19.163-.297-.244-.309-.662-.32-.965a8.034 8.034 0 0 1 .332-2.325 14.62 14.62 0 0 0 3.045-2.104 10.304 10.304 0 0 0 2.306-2.487c.31-.558.5-1.465-.261-1.78a2.152 2.152 0 0 0-1.641.385 7.114 7.114 0 0 0-1.677 1.278 9.391 9.391 0 0 0-2.093 3.743c-.071.21-.154.5-.238.814a6.672 6.672 0 0 1-3.876.64c-.072 0-.095.15 0 .162a6.473 6.473 0 0 0 3.781-.348c-.333 1.43-.523 3.324.845 3.696 1.367.372 3.02-1.302 3.757-2.325a15.607 15.607 0 0 0 1.463-2.325.973.973 0 0 1 .13-.174c0 .663.132 1.163.797 1.046.666-.116 1.297-1.058 1.665-1.558.369-.5.678-.988 1-1.476.059.593.178 1.279.76 1.163.583-.117 1.07-1.163 1.344-1.512.273-.348.464-.709.666-1.08a.72.72 0 0 0 .13.197c.488.511 1.07 0 1.38-.442.31-.442.951-1.162 1.367-1.825.105.278.313.507.583.64.75.348 1.463-.256 1.89-.803a16.067 16.067 0 0 0 1.416-2.22 1.017 1.017 0 0 0 .523.697 1.77 1.77 0 0 0 1.76-.104c.167-.07-.06-.57-.309-.442Zm-16.446 2.871c.345-.174 1.07-.465 1.118.105a1.957 1.957 0 0 1-.476 1.011 13.44 13.44 0 0 1-2.045 2.128 17.192 17.192 0 0 1-2.533 1.895 7.93 7.93 0 0 1 1.419-2.972 8.138 8.138 0 0 1 2.517-2.167Z"/>
  <path fill="#F0F0F0" d="m9.335 151.555 2.105 1.186 52.524-29.644-2.105-1.197-52.524 29.655Z"/>
  <path fill="#FAFAFA" d="m61.859 121.9-50.42 28.469v-42.733l50.42-28.458V121.9Z"/>
  <path fill="#EBEBEB" d="M66.069 74.435 9.334 106.45v49.848l56.733-32.027V74.435Zm-2.105 48.65L11.44 152.741v-45.105l52.524-29.644v45.093Z"/>
  <path fill="#E0E0E0" d="m63.964 123.097-2.105-1.197V79.178l2.105-1.186v45.105Z"/>
  <path fill="#F5F5F5" d="m66.069 74.435-2.105-1.186L7.23 105.264l2.105 1.186 56.733-32.015Z"/>
  <path fill="#E0E0E0" d="m7.23 105.264 2.105 1.186v49.848l-2.105-1.186v-49.848Zm44.747 9.463c1.95-1.163 3.568-.221 3.568 1.999a7.546 7.546 0 0 1-1.05 3.416 7.748 7.748 0 0 1-2.518 2.583c-1.962 1.104-3.567.209-3.567-2a7.522 7.522 0 0 1 1.048-3.417 7.73 7.73 0 0 1 2.52-2.581Zm-28.657-9.033 26.695-15.112c.75-.419 1.344-.07 1.344.767v.07a2.845 2.845 0 0 1-.381 1.323 2.922 2.922 0 0 1-.963 1.002L23.32 108.856c-.75.419-1.344.082-1.344-.767v-.081c.019-.463.15-.914.384-1.317.234-.402.563-.744.96-.997Z"/>
  <path fill="#F0F0F0" d="m19.086 117.575 35.15-19.844c.738-.418 1.344-.22 1.344.43a2.603 2.603 0 0 1-.439 1.125 2.68 2.68 0 0 1-.904.817l-35.175 19.855c-.75.419-1.344.221-1.332-.43a2.66 2.66 0 0 1 .448-1.129 2.74 2.74 0 0 1 .908-.824Zm0 4.731 35.15-19.832c.738-.418 1.344-.232 1.344.43a2.606 2.606 0 0 1-.439 1.125 2.68 2.68 0 0 1-.904.817l-35.175 19.855c-.75.419-1.344.221-1.332-.442.06-.404.214-.79.449-1.128a2.76 2.76 0 0 1 .907-.825Zm0 4.743 35.15-19.832c.738-.418 1.344-.232 1.344.419a2.604 2.604 0 0 1-.436 1.131 2.68 2.68 0 0 1-.907.822l-35.175 19.844c-.75.418-1.344.232-1.332-.431.06-.404.213-.79.448-1.129a2.74 2.74 0 0 1 .908-.824Z"/>
  <path fill="#E0E0E0" d="M45.663 124.864a2.057 2.057 0 0 1-.88.232c-.75 0-.678-.755-.654-1.267 0-.232-.321-.593-.5-.29-.451.813-1.034 1.557-1.521 2.325-.298.476-.869 1.557-1.594 1.406-.297-.069-.392-.383-.392-.779a3.798 3.798 0 0 0 .463-2.139c0-.22-.416-.499-.535-.197a6.851 6.851 0 0 0-.5 1.988 13.105 13.105 0 0 1-1.129 1.65c-.25.326-.464.675-.737.977 0 .07-.19.244-.285.267-.096.024-.227-.104-.262-.267a1.768 1.768 0 0 1 .119-.698v-.058c0-.232-.31-.581-.44-.29a10.27 10.27 0 0 1-2.022 3.348l-.13.116v-.419a3.141 3.141 0 0 0-.167-.93c0-.151-.321-.383-.464-.186a15.936 15.936 0 0 1-2.378 3.162 3.397 3.397 0 0 1-.428.303c-.167-.093.083-.919.119-1.047.095-.372.226-.744.345-1.104.125-.292.22-.596.285-.907 0-.29-.452-.72-.547-.337 0 .151-.178.523-.321.988a22.888 22.888 0 0 1-1.974 3.267 7.555 7.555 0 0 1-2.806 2.627c-.31.163-.892.395-1.19.163-.297-.233-.309-.674-.32-.977a8.183 8.183 0 0 1 .332-2.383 14.586 14.586 0 0 0 3.045-2.104 10.296 10.296 0 0 0 2.306-2.488c.31-.558.5-1.464-.261-1.778-.523-.209-1.19.151-1.641.395a7.121 7.121 0 0 0-1.677 1.267 9.396 9.396 0 0 0-2.093 3.743c-.071.221-.154.5-.238.826a6.671 6.671 0 0 1-3.876.628c-.072 0-.095.151 0 .162a6.463 6.463 0 0 0 3.781-.349c-.333 1.43-.523 3.337.845 3.697 1.367.361 3.02-1.302 3.757-2.255a15.177 15.177 0 0 0 1.463-2.325l.13-.174c0 .674.132 1.162.797 1.046.666-.116 1.297-1.046 1.665-1.558a32.36 32.36 0 0 0 1-1.476c.059.593.178 1.279.76 1.162.583-.116 1.07-1.104 1.344-1.511.273-.407.464-.709.666-1.081a.738.738 0 0 0 .13.198c.488.511 1.07 0 1.38-.442a22.61 22.61 0 0 0 1.367-1.825c.105.278.313.506.583.639.75.349 1.463-.256 1.89-.802.536-.7 1.01-1.443 1.416-2.22a1.059 1.059 0 0 0 .523.709 1.765 1.765 0 0 0 1.76-.117c.167-.139-.06-.627-.309-.511Zm-16.446 2.871c.345-.174 1.07-.465 1.118.117-.058.37-.223.717-.476.999a12.94 12.94 0 0 1-2.045 2.128 17.32 17.32 0 0 1-2.533 1.906 7.961 7.961 0 0 1 1.418-2.977 8.16 8.16 0 0 1 2.518-2.173Z"/>
  <path fill="#F0F0F0" d="m9.335 219.689 2.105 1.185 52.524-29.643-2.105-1.186-52.524 29.644Z"/>
  <path fill="#FAFAFA" d="m61.859 190.045-50.42 28.458V175.77l50.42-28.458v42.733Z"/>
  <path fill="#EBEBEB" d="M66.069 142.569 9.334 174.595v49.837l56.733-32.027v-49.836Zm-2.105 48.673L11.44 220.886v-45.105l52.524-29.655v45.116Z"/>
  <path fill="#E0E0E0" d="m63.964 191.231-2.105-1.186v-42.733l2.105-1.186v45.105Z"/>
  <path fill="#F5F5F5" d="m66.069 142.569-2.105-1.186L7.23 173.41l2.105 1.185 56.733-32.026Z"/>
  <path fill="#E0E0E0" d="m7.23 173.41 2.105 1.185v49.837l-2.105-1.186V173.41Zm44.747 9.451c1.95-1.105 3.568-.209 3.568 1.999a7.583 7.583 0 0 1-1.052 3.421 7.774 7.774 0 0 1-2.516 2.589c-1.962 1.105-3.567.21-3.567-2.011a7.522 7.522 0 0 1 1.048-3.417 7.72 7.72 0 0 1 2.52-2.581Zm-28.657-9.056 26.695-15.112c.75-.419 1.344-.082 1.344.755v.07a2.848 2.848 0 0 1-.381 1.323 2.923 2.923 0 0 1-.963 1.002L23.32 176.955c-.75.419-1.344.082-1.344-.755v-.07a2.85 2.85 0 0 1 .382-1.323c.233-.405.564-.748.962-1.002Z"/>
  <path fill="#F0F0F0" d="m19.086 185.709 35.15-19.832c.738-.419 1.344-.233 1.344.418a2.604 2.604 0 0 1-.436 1.131 2.67 2.67 0 0 1-.907.822l-35.175 19.844c-.75.418-1.344.232-1.332-.43a2.66 2.66 0 0 1 .448-1.129 2.73 2.73 0 0 1 .908-.824Zm0 4.743 35.15-19.844c.738-.418 1.344-.221 1.344.43a2.606 2.606 0 0 1-.439 1.125 2.68 2.68 0 0 1-.904.817l-35.175 19.855c-.75.418-1.344.221-1.332-.43a2.66 2.66 0 0 1 .448-1.129 2.73 2.73 0 0 1 .908-.824Zm0 4.731 35.15-19.832c.738-.418 1.344-.232 1.344.43a2.606 2.606 0 0 1-.439 1.125 2.68 2.68 0 0 1-.904.817l-35.175 19.855c-.75.418-1.344.221-1.332-.442.06-.404.214-.79.449-1.128a2.76 2.76 0 0 1 .907-.825Z"/>
  <path fill="#E0E0E0" d="M45.663 192.998a2.057 2.057 0 0 1-.88.232c-.75 0-.678-.755-.654-1.267 0-.232-.321-.593-.5-.279-.451.802-1.034 1.546-1.521 2.325-.298.477-.869 1.558-1.594 1.407-.297-.058-.392-.372-.392-.768.36-.659.52-1.405.463-2.15 0-.221-.416-.488-.535-.186a6.7 6.7 0 0 0-.452 1.964c-.33.579-.708 1.131-1.13 1.651-.249.326-.463.674-.737.977 0 .069-.19.255-.285.267-.095.012-.273-.116-.273-.267a1.801 1.801 0 0 1 .118-.698v-.058c0-.232-.309-.581-.44-.291a10.022 10.022 0 0 1-2.057 3.348l-.13.117v-.419a3.132 3.132 0 0 0-.167-.93c0-.151-.321-.383-.464-.174a16.663 16.663 0 0 1-2.378 3.162 4.49 4.49 0 0 1-.488.325c-.166-.081.084-.918.12-1.046.095-.372.225-.732.344-1.162.126-.293.221-.596.286-.907 0-.279-.452-.721-.547-.337 0 .151-.179.534-.322.999a23.319 23.319 0 0 1-1.973 3.255 7.56 7.56 0 0 1-2.747 2.593c-.31.163-.892.407-1.19.163-.297-.245-.309-.663-.32-.977a8.044 8.044 0 0 1 .332-2.325 15.545 15.545 0 0 0 3.045-2.104 10.557 10.557 0 0 0 2.306-2.499c.31-.547.5-1.454-.261-1.767-.523-.221-1.19.139-1.641.383a7.148 7.148 0 0 0-1.677 1.267 9.373 9.373 0 0 0-2.14 3.72c-.072.21-.155.489-.238.814a6.671 6.671 0 0 1-3.877.628c-.071 0-.095.151 0 .163a6.48 6.48 0 0 0 3.782-.349c-.333 1.441-.523 3.336.844 3.708 1.368.372 3.02-1.302 3.758-2.267a15.074 15.074 0 0 0 1.462-2.325.88.88 0 0 1 .131-.162c0 .662.131 1.162.797 1.034.666-.128 1.296-1.046 1.665-1.558.368-.511.677-.976.999-1.476.059.605.178 1.279.76 1.163.583-.117 1.07-1.105 1.344-1.512.274-.407.464-.709.666-1.069a.656.656 0 0 0 .131.186c.488.511 1.07 0 1.38-.43.451-.582.95-1.163 1.367-1.837.101.282.31.515.583.651.749.337 1.462-.267 1.89-.814a15.363 15.363 0 0 0 1.416-2.22 1.017 1.017 0 0 0 .523.709c.276.14.586.203.896.182.31-.02.61-.123.864-.298.214-.093-.012-.582-.262-.465Zm-16.446 2.894c.345-.174 1.07-.465 1.118.117-.058.37-.223.717-.476.999a12.5 12.5 0 0 1-2.045 2.128 17.278 17.278 0 0 1-2.533 1.883 7.953 7.953 0 0 1 1.422-2.964 8.166 8.166 0 0 1 2.514-2.163Zm307.88 268.537 84.048 47.429a10.155 10.155 0 0 0 4.513 1.055c1.568 0 3.114-.361 4.512-1.055l45.972-25.946c2.486-1.407 2.486-3.686 0-5.092l-84.048-47.442a10.165 10.165 0 0 0-4.513-1.054c-1.568 0-3.114.361-4.512 1.054l-45.972 25.959c-2.486 1.407-2.486 3.685 0 5.092Zm-83.049-12.66c20.322 11.474 53.285 11.474 73.607 0 20.323-11.474 20.323-30.074 0-41.547-20.322-11.474-53.285-11.474-73.607 0-20.323 11.473-20.323 30.073 0 41.547Zm-197.73 53.463c34.794 19.635 91.207 19.635 126.048 0 34.842-19.634 34.795-51.475 0-71.121-34.794-19.646-91.207-19.635-126.048 0-34.842 19.634-34.794 51.487 0 71.121Z"/>
  <path fill="#E6E6E6" d="M507.524 484.272 276.308 353.771c-2.854-1.605-2.854-4.209 0-5.813l18.681-10.555a11.587 11.587 0 0 1 5.149-1.204c1.79 0 3.554.412 5.149 1.204l231.216 130.513c2.842 1.604 2.842 4.197 0 5.813l-18.681 10.543a11.587 11.587 0 0 1-5.149 1.204c-1.789 0-3.553-.412-5.149-1.204Z"/>
  <path fill="#FFA8A7" d="m225.722 350.446 13.461-18.577-12.248-18.634-13.413-7.568-2.949 4.068-11.119-6.3-23.116 13.055v21.61l-14.056-3.51-12.248 32.468 13.473 7.58-13.473 18.576 12.248 18.635 13.413 7.58 2.938-4.058 11.13 6.278 23.117-13.055v-21.611l14.055 3.511 12.248-32.457-13.461-7.591Z"/>
  <path fill="#fff" d="m225.722 350.446 13.461-18.577-12.248-18.634-13.413-7.568-2.949 4.068-11.119-6.3-23.116 13.055v21.61l-14.056-3.51-12.248 32.468 13.473 7.58-13.473 18.576 12.248 18.635 13.413 7.58 2.938-4.058 11.13 6.278 23.117-13.055v-21.611l14.055 3.511 12.248-32.457-13.461-7.591Z" opacity=".8"/>
  <path fill="#FFA8A7" d="m210.573 309.735 2.307 1.279v21.611l14.055-19.39-13.413-7.568-2.949 4.068Z" opacity=".5"/>
  <path fill="#FFA8A7" d="m162.281 334.59 13.414 7.567 14.067 3.511-13.425-7.568-14.056-3.51Z" opacity=".3"/>
  <path fill="#FFA8A7" d="m176.337 316.49 13.426 7.567v21.611l-13.426-7.568v-21.61Zm-14.057 18.1 13.414 7.567-12.248 32.469-13.414-7.568 12.248-32.468Zm17.219 44.047-16.053-4.011-13.414 18.588 13.414 7.568 16.053-22.145Z" opacity=".5"/>
  <path fill="#FFA8A7" d="m150.032 393.214 13.414 7.568 12.248 18.647-13.414-7.58-12.248-18.635Zm39.731 28.435-11.131-6.278 11.131-15.344v21.622Z" opacity=".65"/>
  <path fill="#FFA8A7" d="m239.183 358.037-16.053-4.022 2.592-3.569 13.461 7.591Z" opacity=".5"/>
  <path fill="#FAFAFA" d="m217.469 354.689 16.981-23.424-8.823-13.427-14.567 20.076-2.236-1.267v-20.983l-17.254 9.73v23.518l-15.292-3.825-10.084 26.726 14.495 3.627 2.236 1.267-16.981 23.424 8.835 13.427 14.556-20.076 2.235 1.255v20.995l17.254-9.73v-23.517l15.305 3.824 10.084-26.726-14.508-3.638-2.236-1.256Z"/>
  <path fill="#FFA8A7" d="m189.382 393.517-14.555 20.076 1.498 2.325 15.293-21.1-2.236-1.301Zm34.794-7.173-15.304-3.825v23.518l-17.254 9.73v2.522l19.49-10.997V383.74l15.304 3.825 10.322-27.366-2.474-.627-10.084 26.772Zm-4.423-30.364 16.981-23.413-10.37-15.775-.737 1.023 8.823 13.427-16.981 23.447 2.284 1.291Zm-8.645-41.548-2.284 1.197v20.995l2.236 1.256.048-23.448Zm-30.371 61.054-14.496-3.638-.249.651 16.981 4.243-2.236-1.256Z"/>
  <path fill="#fff" d="m189.382 393.517-14.555 20.076 1.498 2.325 15.293-21.1-2.236-1.301Zm34.794-7.173-15.304-3.825v23.518l-17.254 9.73v2.522l19.49-10.997V383.74l15.304 3.825 10.322-27.366-2.474-.627-10.084 26.772Zm-4.423-30.364 16.981-23.413-10.37-15.775-.737 1.023 8.823 13.427-16.981 23.447 2.284 1.291Zm-8.645-41.548-2.284 1.197v20.995l2.236 1.256.048-23.448Zm-30.371 61.054-14.496-3.638-.249.651 16.981 4.243-2.236-1.256Z" opacity=".7"/>
  <path fill="#FFA8A7" d="m208.824 406.002 2.236 1.255V383.74l-2.236-1.256v23.518Zm15.304-19.693 2.236 1.256 10.322-27.366-2.474-.616-10.084 26.726Zm-32.558 8.428-2.236-1.255-14.555 20.076 1.499 2.278 15.292-21.099Zm42.88-63.472 2.236 1.267-10.322-15.717-.737 1.023 8.823 13.427Zm-23.39 6.649-2.236-1.267v-20.983l2.236-1.267v23.517Zm-28.135 38.793-2.236-1.267-14.495-3.627-.25.651 16.981 4.243Z" opacity=".35"/>
  <path fill="#455A64" d="M200.084 402.7h.131l-.071 5.487-.06-5.487Zm.309-16.333v14.299h-.166v-8.324l-.059-5.998.225.023Zm.262-23.424-.095 7.858-.131 11.986-.571-.14-.071-6.917v-3.987l-.095-8.637.737-.117.226-.046Zm1.641-27.946a5.272 5.272 0 0 1-1.379 3.382l-.084 8.08v3.487l-.095 8.603h-1.106l-.083-7.417-.071-5.72-.06-6.184c-.808 0-1.379-.651-1.379-1.837a4.962 4.962 0 0 1 .586-2.252 5.092 5.092 0 0 1 1.554-1.758c1.154-.64 2.117.069 2.117 1.616Z"/>
  <path fill="#455A64" d="M206.827 342.274a10.34 10.34 0 0 0-5.47 2.325v4.243a20.535 20.535 0 0 1 4.756-2.744s-.238 1.267.333 1.512a5.156 5.156 0 0 0 4.174-.593c1.106-1.035.309-4.65-3.793-4.743Zm1.308 3.138c-.274.14-.488 0-.488-.36a1.152 1.152 0 0 1 .488-.895c.261-.151.475 0 .475.36a1.14 1.14 0 0 1-.475.895Zm-6.933 13.799h-2.116c-1.511 0-2.617-.488-2.617-2.115a9.385 9.385 0 0 1 2.521-6.15v-4.418c-3.282 3.162-6.04 7.464-6.04 11.963 0 4.498 3.091 4.464 6.207 3.999l.511-.07 1.023-.175.511-.093c2.378-.383 4.317-.569 4.317 1.384 0 2.22-2.105 4.743-4.412 7.416v2.581c2.961-3.418 6.362-7.207 6.362-11.078 0-3.871-3.318-3.453-6.267-3.244Zm-.273 24.413-.512-.105-.547-.116-.511-.128c-1.451-.384-2.652-1-2.652-2.72 0-1.465 1.082-3.139 2.569-4.976v-2.546c-2.236 2.662-4.21 5.418-4.21 8.138 0 3.325 2.248 3.883 4.352 4.22l.512.081.499.081.512.093c1.189.256 2.081.663 2.081 1.895 0 1.546-.999 2.953-2.153 4.406v1.767c1.653-2.011 3.568-4.15 3.568-7.277-.096-1.93-1.748-2.395-3.508-2.778v-.035Zm-.202 17.832a3.477 3.477 0 0 1-.5 0 .575.575 0 0 1-.155 0 1.577 1.577 0 0 1-.511-.186c-.69-.348-1.189-1.104-1.189-2.592a5.724 5.724 0 0 1 1.07-3.115v-1.791a8.375 8.375 0 0 0-2.057 5.034c0 1.918.88 2.976 2.14 3.185.175.012.35.012.524 0h.131l.511-.07a5.21 5.21 0 0 0 1.534-.581 7.767 7.767 0 0 1-1.498.151v-.035Z"/>
  <path fill="#FFA8A7" d="m189.763 324.057 23.116-13.043-13.425-7.579-23.117 13.055 13.426 7.567Z" opacity=".2"/>
  <path fill="#FFA8A7" d="m505.502 472.985 4.424-2.488a5.517 5.517 0 0 0 1.782-1.846 5.38 5.38 0 0 0 .739-2.432V119.644a5.38 5.38 0 0 0-.739-2.432 5.536 5.536 0 0 0-1.782-1.846L306.5.593a5.648 5.648 0 0 0-5.042 0l-4.435 2.5a5.494 5.494 0 0 0-1.783 1.838 5.35 5.35 0 0 0-.738 2.428v346.54c.047.856.3 1.69.738 2.433a5.526 5.526 0 0 0 1.783 1.845l203.426 114.808c.782.39 1.648.593 2.526.593.879 0 1.745-.203 2.527-.593Z"/>
  <path fill="#000" d="m505.502 472.985 4.424-2.488a5.517 5.517 0 0 0 1.782-1.846 5.38 5.38 0 0 0 .739-2.432V119.644a5.38 5.38 0 0 0-.739-2.432 5.536 5.536 0 0 0-1.782-1.846L306.5.593a5.648 5.648 0 0 0-5.042 0l-4.435 2.5a5.494 5.494 0 0 0-1.783 1.838 5.35 5.35 0 0 0-.738 2.428v346.54c.047.856.3 1.69.738 2.433a5.526 5.526 0 0 0 1.783 1.845l203.426 114.808c.782.39 1.648.593 2.526.593.879 0 1.745-.203 2.527-.593Z" opacity=".3"/>
  <path fill="#FFA8A7" d="M294.525 6.929c.179-1.279 1.189-1.744 2.497-1.023l203.426 114.808a5.058 5.058 0 0 1 1.784 1.837l9.513-5.348a5.154 5.154 0 0 0-1.784-1.837L306.512.593a5.672 5.672 0 0 0-5.054 0l-4.436 2.488a5.603 5.603 0 0 0-1.671 1.661 5.467 5.467 0 0 0-.826 2.187Z" opacity=".4"/>
  <path fill="#000" d="M500.936 473.182c.047.03.1.049.155.058l.261.093h.095l.476.117a5.85 5.85 0 0 0 3.008-.244c.191-.07.381-.163.559-.245l4.424-2.499a5.559 5.559 0 0 0 1.779-1.847 5.405 5.405 0 0 0 .742-2.431v-346.54a4.937 4.937 0 0 0-.737-2.441l-9.514 5.348c.461.737.719 1.578.75 2.441v346.574c.024.465-.114.925-.393 1.302a1.306 1.306 0 0 1-.609.402c-.238.074-.493.08-.734.017l-.262-.105Z" opacity=".15"/>
  <path fill="#455A64" d="m356.123 66.483 85.261 48.128 4.756-2.674V99.08c0-1.628-.261-3.743-6.659-12.37-6.397-8.625-6.576-11.624-9.513-15.507-2.937-3.883-8.205-6.824-11.963-15.973-3.757-9.148-4.102-23.25-14.519-29.062a9.472 9.472 0 0 0-4.566-1.441 4.77 4.77 0 0 0-2.379.639l-4.352 2.453-.392.22 1.248 1.802c-1.439 3.093-2.378 6.836-4.031 8.963a6.609 6.609 0 0 1-2.101 1.93 6.777 6.777 0 0 1-2.739.884c-2.675.302-5.351-.721-7.135-.291a4.98 4.98 0 0 0-1.189.488l-4.756 2.674.321.384a19.82 19.82 0 0 1-1.855.744c-.571.174-1.189.36-1.95.523a15.92 15.92 0 0 0-4.9 1.697l-4.197 2.325-.381.22-2.009 16.101Zm78.09 29.307c0-1.674.892-2.523 1.998-1.895a5.248 5.248 0 0 1 1.507 1.857c.351.723.527 1.516.514 2.316 0 1.674-.915 2.5-2.021 1.884a5.195 5.195 0 0 1-1.498-1.852 5.09 5.09 0 0 1-.5-2.31Zm-43.047-47.662c0-5.383 2.45-8.487 5.768-7.859a4.169 4.169 0 0 1 1.073-1.614 4.293 4.293 0 0 1 1.701-.971 4.364 4.364 0 0 1 1.966-.122 4.32 4.32 0 0 1 1.812.754c4.198 2.325 7.598 9.405 7.598 15.717 0 5.36-2.461 8.486-5.755 7.858-1.32 2.651-3.77 3.546-6.564 1.965-4.21-2.36-7.599-9.393-7.599-15.717v-.011Zm-22.736 10.59c0-1.686.904-2.523 2.022-1.895a5.228 5.228 0 0 1 1.52 1.83c.356.715.54 1.5.537 2.297 0 1.662-.904 2.51-2.01 1.883a5.176 5.176 0 0 1-1.527-1.82 5.064 5.064 0 0 1-.542-2.295Z"/>
  <path fill="#37474F" d="m436.651 102.253 9.169-5.173a6.4 6.4 0 0 1 .297 2v12.857l-4.757 2.674-4.756-2.674.047-9.684ZM427.21 86.21l-4.757-10.694 7.527-4.313c2.212 2.988 2.854 5.406 5.827 10.149l-8.597 4.859Zm-19.026-21.389-.619-3.115c2.093-.86 3.484-3.628 3.484-7.661 0-5.36-2.449-11.23-5.767-14.334l6.564-3.708c2.806 6.23 3.841 13.59 6.124 19.18a42.741 42.741 0 0 0 1.522 3.256l-11.308 6.382Z" opacity=".5"/>
  <path fill="#37474F" d="M356.123 53.626v12.857l85.261 48.128V101.73c0-1.627-.25-3.731-6.647-12.369-6.398-8.637-6.588-11.555-9.513-15.507-2.926-3.953-8.193-6.813-11.892-16.02-3.698-9.207-4.102-23.145-14.519-29.062-2.89-1.627-4.994-1.755-6.624-1.023l-.392.22c-3.924 2.268-4.887 9.975-7.515 13.44a1.27 1.27 0 0 0-.107.139c-3.758 4.755-8.99 1.697-11.892 2.325a4.825 4.825 0 0 0-1.272.5 9.587 9.587 0 0 0-1.534 1.162 13.826 13.826 0 0 1-6.671 3.185c-1.511.291-2.98.76-4.376 1.395l-.381.221a3.296 3.296 0 0 0-1.506 1.342 3.19 3.19 0 0 0-.42 1.948Zm73.358 44.838c0-1.674.892-2.535 2.009-1.907a5.254 5.254 0 0 1 1.5 1.86c.348.722.523 1.514.51 2.313 0 1.674-.904 2.523-2.01 1.895a5.205 5.205 0 0 1-1.503-1.851 5.081 5.081 0 0 1-.506-2.31Zm-38.314-50.325c0-5.382 2.449-8.486 5.767-7.858a6.458 6.458 0 0 1 1.831.709c4.198 2.325 7.599 9.416 7.599 15.728a11.622 11.622 0 0 1-1.035 5.185c-1.319 2.65-3.769 3.546-6.564 1.965-4.209-2.372-7.598-9.405-7.598-15.729ZM363.71 61.345c0-1.674.903-2.523 2.009-1.895a5.184 5.184 0 0 1 1.519 1.847c.353.722.529 1.515.515 2.315 0 1.674-.892 2.511-2.01 1.883a5.196 5.196 0 0 1-1.513-1.842 5.08 5.08 0 0 1-.52-2.308Z"/>
  <path fill="#263238" d="M391.167 48.14c0 6.323 3.389 13.356 7.599 15.728 2.794 1.58 5.244.686 6.564-1.965a5.896 5.896 0 0 1-1.844-.709c-4.197-2.325-7.598-9.405-7.598-15.717a11.649 11.649 0 0 1 1.046-5.196c-3.317-.628-5.767 2.476-5.767 7.858Zm40.323 54.485c1.106.616 2.01-.221 2.01-1.895a5.144 5.144 0 0 0-.51-2.314 5.254 5.254 0 0 0-1.5-1.859c-1.117-.616-2.009.233-2.009 1.907a5.066 5.066 0 0 0 .504 2.312 5.185 5.185 0 0 0 1.505 1.849Zm-65.771-37.118c1.118.628 2.022-.221 2.022-1.883a5.096 5.096 0 0 0-.511-2.319 5.202 5.202 0 0 0-1.511-1.855c-1.105-.628-2.009.233-2.009 1.895a5.085 5.085 0 0 0 .508 2.31 5.215 5.215 0 0 0 1.501 1.852Z"/>
  <path fill="#F5F5F5" d="M487.249 141.511 310.234 41.606a3.39 3.39 0 0 0-3.032 0l-1.701.965c-.443.28-.812.66-1.076 1.106a3.208 3.208 0 0 0-.446 1.463v299.203c.029.515.182 1.016.447 1.463.264.446.633.825 1.075 1.106l177.004 99.905a3.386 3.386 0 0 0 3.032 0l1.712-.965a3.34 3.34 0 0 0 1.067-1.11c.262-.446.414-.945.443-1.459V144.08a3.243 3.243 0 0 0-.443-1.46 3.327 3.327 0 0 0-1.067-1.109Z"/>
  <path fill="#E0E0E0" d="M482.873 446.991c.179.073.367.119.559.14h.285c.308.035.62.035.928 0 .192-.022.38-.069.559-.14l.333-.162 1.712-.954a3.343 3.343 0 0 0 1.065-1.11c.262-.446.415-.945.445-1.459V144.092a2.977 2.977 0 0 0-.44-1.465l-4.756 2.674c.265.442.416.941.44 1.453v299.203c.024.813-.464 1.209-1.13 1.034Z"/>
  <path fill="#FFA8A7" d="m305.501 42.57 1.701-.964a3.39 3.39 0 0 1 3.032 0l177.015 99.905c.439.283.805.663 1.067 1.109.262.447.414.946.443 1.46v49.336l-4.756 2.686L303.979 94.488V45.14a3.208 3.208 0 0 1 .446-1.463 3.294 3.294 0 0 1 1.076-1.106Z"/>
  <path fill="#fff" d="m305.501 42.57 1.701-.964a3.39 3.39 0 0 1 3.032 0l177.015 99.905c.439.283.805.663 1.067 1.109.262.447.414.946.443 1.46v49.336l-4.756 2.686L303.979 94.488V45.14a3.208 3.208 0 0 1 .446-1.463 3.294 3.294 0 0 1 1.076-1.106Z" opacity=".4"/>
  <path fill="#FFA8A7" d="M304.038 44.687c.191-.605.773-.802 1.451-.407l177.015 99.905c.452.271.824.651 1.082 1.104l4.757-2.662a2.942 2.942 0 0 0-1.07-1.163L310.234 41.606a3.37 3.37 0 0 0-3.021 0l-1.724.965a3.368 3.368 0 0 0-.941.916 3.29 3.29 0 0 0-.51 1.2Z"/>
  <path fill="#fff" d="M304.038 44.687c.191-.605.773-.802 1.451-.407l177.015 99.905c.452.271.824.651 1.082 1.104l4.757-2.662a2.942 2.942 0 0 0-1.07-1.163L310.234 41.606a3.37 3.37 0 0 0-3.021 0l-1.724.965a3.368 3.368 0 0 0-.941.916 3.29 3.29 0 0 0-.51 1.2Z" opacity=".6"/>
  <path fill="#FFA8A7" d="M488.759 144.08v49.348l-4.756 2.674v-49.348a3.182 3.182 0 0 0-.44-1.465l4.756-2.662c.274.438.426.939.44 1.453Zm-132.018 39.827 9.049-13.345-6.801-3.837-5.946 8.94-6.945-18.995a4.633 4.633 0 0 0 1.828-1.011 4.513 4.513 0 0 0 1.181-1.698 13.684 13.684 0 0 0 1.106-5.812 21.127 21.127 0 0 0-2.966-10.87 21.753 21.753 0 0 0-8.176-7.916l-8.622-4.871v37.107l5.613 3.173v-11.799l3.746 2.116 9.513 24.098-9.323 13.95 6.957 3.929 6.135-9.3 5.78 16.066 7.23 4.081-9.359-24.006Zm-20.667-38.002V134.71l4.019 2.325a7.326 7.326 0 0 1 3.437 3.778 12.28 12.28 0 0 1 .892 4.36 4.493 4.493 0 0 1-1.047 3.162c-.69.775-1.795.728-3.318-.14l-3.983-2.29Z"/>
  <path fill="#E0E0E0" d="m470.542 219.177-77.52-43.756V159.82l77.52 43.745v15.612Zm0 16.728-77.52-43.756a3.605 3.605 0 0 1-1.051-1.292 3.529 3.529 0 0 1-.352-1.614c0-1.163.63-1.755 1.403-1.325l77.52 43.756c.446.347.804.79 1.047 1.293.244.504.365 1.056.356 1.613 0 1.174-.63 1.767-1.403 1.325Zm0 14.264-77.52-43.756a3.661 3.661 0 0 1-1.048-1.294 3.56 3.56 0 0 1-.355-1.612c0-1.163.63-1.767 1.403-1.326l77.52 43.757c.446.347.804.789 1.047 1.293.244.504.365 1.056.356 1.613 0 1.174-.63 1.755-1.403 1.325Zm0 14.311-77.52-43.757a3.61 3.61 0 0 1-1.051-1.291 3.533 3.533 0 0 1-.352-1.615c0-1.162.63-1.755 1.403-1.314l77.52 43.745a3.66 3.66 0 0 1 1.049 1.299 3.59 3.59 0 0 1 .354 1.619c0 1.104-.63 1.697-1.403 1.314Zm0 29.504-149.094-84.142a3.66 3.66 0 0 1-1.049-1.299 3.578 3.578 0 0 1-.355-1.619c0-1.162.631-1.755 1.404-1.313l149.094 84.141c.446.347.804.79 1.047 1.294.244.504.365 1.055.356 1.612 0 1.175-.63 1.767-1.403 1.326Zm0 17.856-149.094-84.142a3.66 3.66 0 0 1-1.049-1.299 3.578 3.578 0 0 1-.355-1.619c0-1.162.631-1.755 1.404-1.313l149.094 84.141c.446.347.804.79 1.047 1.294a3.56 3.56 0 0 1 .356 1.612c0 1.174-.63 1.767-1.403 1.326Zm0 17.856-149.094-84.142a3.66 3.66 0 0 1-1.049-1.299 3.578 3.578 0 0 1-.355-1.619c0-1.162.631-1.755 1.404-1.313l149.094 84.141a3.67 3.67 0 0 1 1.049 1.299 3.59 3.59 0 0 1 .354 1.619c0 1.197-.63 1.755-1.403 1.314Zm0 17.855L321.448 263.41a3.66 3.66 0 0 1-1.049-1.299 3.578 3.578 0 0 1-.355-1.619c0-1.162.631-1.755 1.404-1.313l149.094 84.141a3.67 3.67 0 0 1 1.049 1.299 3.59 3.59 0 0 1 .354 1.619c0 1.162-.63 1.755-1.403 1.313Z"/>
  <path fill="#FFA8A7" d="m470.542 387.995-149.094-84.153a1.167 1.167 0 0 1-.352-.428 1.136 1.136 0 0 1-.112-.537c0-.384.214-.581.464-.442l149.094 84.107a1.161 1.161 0 0 1 .463.964c0 .442-.202.64-.463.489Z"/>
  <path fill="#455A64" d="M331.995 347.644c-5.374-3.045-9.762-12.101-9.762-20.204 0-8.102 4.388-12.218 9.762-9.183 5.375 3.034 9.763 12.101 9.763 20.204 0 8.102-4.376 12.218-9.763 9.183Zm0-27.981c-4.863-2.743-8.823.988-8.823 8.3 0 7.312 3.96 15.52 8.823 18.263 4.864 2.744 8.824-.976 8.824-8.3 0-7.324-3.984-15.508-8.824-18.263Z"/>
  <path fill="#455A64" d="M338.773 336.775c0 5.627-3.032 8.486-6.778 6.371-3.745-2.116-6.778-8.394-6.778-14.02 0-5.627 3.044-8.486 6.778-6.371 3.734 2.116 6.778 8.382 6.778 14.02Z"/>
  <path fill="#E0E0E0" d="m399.241 364.466-47.458-26.784v-3.79l47.458 26.784v3.79Zm0 8.323-47.458-26.784v-3.789L399.241 369v3.789Zm0 8.324-47.458-26.784v-3.778l47.458 26.784v3.778Z"/>
  <path fill="#455A64" d="M466.629 414.174c-.142.744-.808.581-1.284.058a8.233 8.233 0 0 1-1.118-1.988 42.248 42.248 0 0 1-1.522-4.034 38.653 38.653 0 0 1-1.522-7.137c0-.523-.095-1.035-.155-1.558-.107-.872-1.129-1.593-1.058-.616 0 .546.095 1.093.155 1.651a30.732 30.732 0 0 1-.095 6.207 12.517 12.517 0 0 1-1.796 5.813c-.428.535-1.023.988-1.724.721-.702-.268-1.522-1.686-2.034-2.883a37.817 37.817 0 0 1-1.522-4.302c.163-.254.31-.518.44-.79a26.867 26.867 0 0 0 2.034-8.405c.261-2.499.558-6.115-1.32-8.661-3.984-5.394-3.901 7.161-3.568 10.37.248 2.276.673 4.53 1.273 6.742a2.944 2.944 0 0 1-.654.616c-.643.407-1.404.384-2.188-.499a4.667 4.667 0 0 1-1.19-2.721l.072-.72c0-.64-.833-1.535-.952-.907v.163c0 .197 0 .395-.059.592a22.952 22.952 0 0 1-.904-3.208c-.107-.57-.785-1.232-.963-.756l-1.07 2.918a14.27 14.27 0 0 1-.333-5.15c.095-.744-.892-1.708-1.07-1.046a10.77 10.77 0 0 1-1.629 3.918 1.724 1.724 0 0 1-.629.506 1.778 1.778 0 0 1-1.584-.032 1.735 1.735 0 0 1-.606-.532l-.131-.152c.31-.441.607-.918.88-1.406a7.183 7.183 0 0 0 1.416-5.15c-.381-2.081-1.844-3.662-2.831-2.883-1.534 1.163-2.378 5.359-.975 8.742-1.189 1.465-2.747 2.395-4.661 1.755-1.915-.639-4.043-2.906-4.876-6.231a14.573 14.573 0 0 1-.451-3.906c.901.413 1.858.699 2.842.849a6.206 6.206 0 0 0 3.87-.551 6.013 6.013 0 0 0 2.729-2.739 6.115 6.115 0 0 0 .823-2.667 6.1 6.1 0 0 0-.454-2.75 5.239 5.239 0 0 0-1.34-2.177 5.42 5.42 0 0 0-2.228-1.311c-2.663-.465-4.934 1.767-6.183 4.65a15.441 15.441 0 0 0-1.189 4.79 31.962 31.962 0 0 1-6.017-4.115c-.559-.465-.63.534-.119 1.011a33.362 33.362 0 0 0 6.076 4.499 16.68 16.68 0 0 0 .761 5.266c1.273 4.104 4.115 6.731 6.493 7.254 1.95.43 3.568-.512 4.757-2.011 1.189 1.534 2.628 1.964 3.686 1.453a3.71 3.71 0 0 0 1.558-1.837c.199 1.339.533 2.655.999 3.929.178.512.773.954.927.524l1.011-2.825c.356 1.23.809 2.431 1.356 3.592.142.279.463.546.665.511a6.82 6.82 0 0 0 1.986 2.628 1.992 1.992 0 0 0 2.842-.198c.084.256.143.511.226.756.904 2.673 2.248 6.231 4.174 6.975 2.164.895 3.318-2.023 3.912-4.43a25.63 25.63 0 0 0 .607-4.01 56.358 56.358 0 0 0 1.189 3.883 18.718 18.718 0 0 0 2.378 4.94c.952 1.163 2.105 1.407 2.379 0 .202-.558-.417-1.499-.512-.988Zm-39.17-30.225c.975-2.429 2.652-4.15 4.661-4.452.987-.151 2.379.209 3.152 2.185a4.56 4.56 0 0 1 .159 2.253 4.6 4.6 0 0 1-.944 2.06c-1.962 2.906-4.876 3.023-7.979 1.79.148-1.298.468-2.572.951-3.789v-.047Zm10.132 7.277c.214-.395.665-1.325 1.189-.744a3.183 3.183 0 0 1 .19 2.663 15.12 15.12 0 0 1-1.855 3.557 8.246 8.246 0 0 1 .476-5.429v-.047Zm14.59 11.939a29.968 29.968 0 0 1-.107-13.624c.25-.884.726-1.535 1.522-.547a6.554 6.554 0 0 1 1.011 3.848 30.456 30.456 0 0 1-.868 7.533 19.695 19.695 0 0 1-1.272 3.964c-.084-.36-.191-.779-.286-1.174ZM342.65 73.098s1.7 6.44 2.283 9.893a2.23 2.23 0 0 0 .927 1.395l102.159 57.601 1.903 1.058a.142.142 0 0 0 .154 0c.155-.093.226-.325.167-.651v-.069c-1.784-9.428-4.412-17.043-13.699-24.599l-14.852-10.881s-3.972-3.662-4.65-7.463l-.927-5.092-1.725-9.95s-.249-2.93-3.948-6.464c-3.698-3.534-10.06-13.055-11.178-19.251-1.771-9.835-9.037-20.785-16.243-24.47a9.68 9.68 0 0 0-4.34-1.163 5.123 5.123 0 0 0-2.605.65l-4.59 2.57-.202.116c0 .581-.88 19.46-3.877 19.53a3.327 3.327 0 0 0-.511 0 2.08 2.08 0 0 0-.773.268l-4.626 2.615-.107.058 6.172 13.334c.69 3.79-1.546 4.162-2.652 3.72l-2.057-.802c-2.842-1.163-5.22-2.244-10.702-4.65a5.227 5.227 0 0 0-4.757-.128l-4.756 2.662.012.163Zm35.484-30.655a3.703 3.703 0 0 1 .677-1.526 3.805 3.805 0 0 1 1.285-1.09c1.058-.476 14.079 21.355 12.652 22.46a3.554 3.554 0 0 1-3.341.419c-.75 2.743-2.973 3.72-6.029 2.15-4.436-2.325-8.895-9.01-9.989-15.043-.975-5.417 1.094-8.44 4.745-7.37Z"/>
  <path fill="#37474F" d="m435.533 128.468 7.444-4.197c4.329 5.557 6.053 11.404 7.337 18.181v.07c0 .326 0 .558-.166.651a.14.14 0 0 1-.077.022.142.142 0 0 1-.078-.022l-5.874-4.545-8.586-10.16Zm-17.968-27.366-10.488 5.918-3.567-20.81 9.43-5.335a8.686 8.686 0 0 1 1.486 3.487l1.724 9.952.928 5.091c.102.58.266 1.15.487 1.697ZM394.318 45.93a39.37 39.37 0 0 1 4.982 12.788 31.366 31.366 0 0 0 3.711 9.067l-9.002 5.08-4.483-10.102a3.531 3.531 0 0 0 3.222-.441c.738-.57-2.378-6.615-5.66-12.288l7.23-4.103Z" opacity=".5"/>
  <path fill="#37474F" d="M339.771 79.724s4.139 3.825 4.388 3.964c.25.14 1.439.79 1.439.79l102.444 57.579 1.903 1.058c-.357-.349-5.946-4.569-5.946-4.569-2.007-7.135-6.284-13.462-12.212-18.065L416.958 109.6s-3.995-3.673-4.673-7.475l-.916-5.08-1.724-9.962s-.25-2.918-3.948-6.452-10.06-13.055-11.19-19.263c-1.771-9.823-9.037-20.773-16.231-24.47-2.723-1.395-5.066-1.546-6.802-.651l-.202.128c-2.7 1.546-3.877 5.708-2.807 11.625.29 1.356.3 2.755.028 4.114a10.254 10.254 0 0 1-1.609 3.802 5.727 5.727 0 0 1-1.804 1.79 5.88 5.88 0 0 1-2.418.85 2.9 2.9 0 0 0-1.189.243l-.107.058c-1.486.826-.904 3-.904 3l1.416 7.928.927 5.08v.244c.571 3.569-1.593 3.906-2.664 3.488-4.007-1.558-6.04-2.511-12.795-5.418a5.223 5.223 0 0 0-4.756-.151h-.072c-1.593 1.07-2.568 3.406-2.747 6.696Zm38.362-37.281c.445.138.875.317 1.284.535 4.436 2.255 8.907 8.997 10.001 15.042.32 1.535.32 3.116 0 4.65-.749 2.744-2.973 3.72-6.029 2.151-4.435-2.325-8.895-9.01-9.989-15.043-.987-5.382 1.082-8.404 4.733-7.335Z"/>
  <path fill="#263238" d="M373.389 49.825c1.094 6.033 5.553 12.787 9.989 15.043 3.056 1.569 5.28.592 6.029-2.151a9.488 9.488 0 0 1-1.296-.523c-4.436-2.267-8.895-9.01-9.989-15.055a11.143 11.143 0 0 1 0-4.65c-3.639-1.115-5.708 1.907-4.733 7.336Z"/>
  <path fill="#263238" d="M377.67 42.71h.404a7.4 7.4 0 0 1 1.189.512c4.341 2.209 8.764 8.87 9.846 14.833.311 1.492.311 3.03 0 4.522-.35.514-.806.95-1.338 1.282a4.642 4.642 0 0 1-1.753.648c-1.903 0-8.764-6.777-9.834-9.672-.75-2.08-2.51-8.59-.678-11.136.239-.334.561-.602.935-.779.375-.177.79-.257 1.205-.233m0-.279c-5.232 0-2.818 9.556-1.736 12.52 1.082 2.965 8.027 9.87 10.072 9.87a5.028 5.028 0 0 0 1.902-.709 4.89 4.89 0 0 0 1.451-1.395 11.347 11.347 0 0 0 0-4.65c-1.094-6.045-5.565-12.788-10-15.043a7.39 7.39 0 0 0-1.285-.535 3.166 3.166 0 0 0-.463 0l.059-.058Zm72.312 100.719L345.599 84.479l-1.439-.78c-.25-.15-4.376-3.975-4.376-3.975l104.264 58.834s6.326 4.778 5.91 4.569Z"/>
  <path fill="#F0F0F0" d="m342.983 464.045 79.054 44.628a9.537 9.537 0 0 0 4.245.994c1.476 0 2.93-.34 4.245-.994l43.249-24.412c2.379-1.314 2.379-3.488 0-4.79l-79.065-44.616a9.516 9.516 0 0 0-4.24-.994c-1.473 0-2.926.34-4.239.994l-43.249 24.412c-2.343 1.314-2.343 3.464 0 4.778Z"/>
  <path fill="#fff" d="m342.971 461.801 79.066 44.629a9.555 9.555 0 0 0 8.491 0l43.249-24.413c2.378-1.325 2.378-3.487 0-4.789L394.711 432.6a9.607 9.607 0 0 0-4.245-.986 9.608 9.608 0 0 0-4.246.986l-43.249 24.412c-2.342 1.325-2.342 3.464 0 4.789Z"/>
  <path fill="#FAFAFA" d="m430.527 506.43 39.004-22.018c-12.284 6.15-35.615 19.309-39.063 20.623-3.449 1.313-5.482 1.894-11.891-1.732-6.41-3.627-71.23-39.037-71.23-39.037l74.702 42.164a9.553 9.553 0 0 0 8.478 0Z"/>
  <path fill="#E0E0E0" d="M449.803 491.248a1.22 1.22 0 0 1-1.058 0l-78.804-44.489c-.309-.163-.321-.43 0-.593a1.207 1.207 0 0 1 1.058 0l78.804 44.477c.321.174.333.442 0 .605Z"/>
  <path fill="#FAFAFA" d="M386.339 450.339c.25.144.512.264.785.361l.309.116c1.173.36 2.407.49 3.631.383a9.476 9.476 0 0 0 3.504-1.011l7.432-4.196a5.257 5.257 0 0 0 2.058-1.859 5.096 5.096 0 0 0 .803-2.625 5.11 5.11 0 0 0-.678-2.658 5.248 5.248 0 0 0-2.754-2.309l-.309-.105a9.562 9.562 0 0 0-3.63-.387 9.513 9.513 0 0 0-3.505 1.003l-7.432 4.185h-.06a5.331 5.331 0 0 0-2.152 1.999 5.078 5.078 0 0 0-.53 3.942c.181.659.493 1.276.919 1.816.426.541.956.994 1.561 1.334l.048.011Z" opacity=".7" style="mix-blend-mode:hard-light"/>
  <path fill="#E0E0E0" d="M402.238 441.353a9.247 9.247 0 0 0-4.127-.886 9.241 9.241 0 0 0-4.09 1.037l-7.432 4.197c-2.379 1.314-2.462 3.394-.262 4.65a9.22 9.22 0 0 0 4.127.887 9.226 9.226 0 0 0 4.09-1.038l7.432-4.197c2.355-1.337 2.474-3.406.262-4.65Z"/>
  <path fill="#fff" d="M404.307 443.748a5.07 5.07 0 0 0 .394-3.843 5.197 5.197 0 0 0-2.44-3.039 5.784 5.784 0 0 0-.784-.36l-.31-.105a9.828 9.828 0 0 0-6.219.186c3.484-.349 5.637-.442 7.825 1.348a5.23 5.23 0 0 1 1.702 2.671 5.133 5.133 0 0 1-.168 3.142Z"/>
  <path fill="#F5F5F5" d="M391.072 440.272a2.234 2.234 0 0 1 2.199.221 6.76 6.76 0 0 1 2.196 2.264c.539.913.851 1.938.908 2.99a2.1 2.1 0 0 1-.186 1.104 2.14 2.14 0 0 1-.73.861l-3.995 2.244a4.498 4.498 0 0 1-3.26.313 4.384 4.384 0 0 1-2.578-1.977 4.217 4.217 0 0 1-.466-3.17 4.305 4.305 0 0 1 1.904-2.606l4.008-2.244Z"/>
  <path fill="#FFA8A7" d="M396.578 437.18a4.498 4.498 0 0 1 3.411-.556 4.455 4.455 0 0 1 1.596.736c.476.349.875.788 1.172 1.291a4.218 4.218 0 0 1-.409 4.882 4.374 4.374 0 0 1-1.371 1.087l-5.517 3.092c.317-.219.569-.516.73-.861.161-.345.225-.726.185-1.104a6.57 6.57 0 0 0-.908-2.99 6.758 6.758 0 0 0-2.195-2.264 2.235 2.235 0 0 0-2.2-.221l5.506-3.092Z"/>
  <path fill="#fff" d="M401.667 441.179a1.648 1.648 0 0 0-.431-.484 1.691 1.691 0 0 0-1.243-.327 1.7 1.7 0 0 0-.621.206l-6.659 3.744a6.277 6.277 0 0 0 2.2 2.266l.261.14 5.887-3.302c.382-.22.661-.58.774-1 .114-.42.053-.866-.168-1.243Z" opacity=".4"/>
  <path fill="#F5F5F5" d="M391.072 440.272a2.234 2.234 0 0 1 2.199.221 6.76 6.76 0 0 1 2.196 2.264c.539.913.851 1.938.908 2.99a2.1 2.1 0 0 1-.186 1.104 2.14 2.14 0 0 1-.73.861l-3.995 2.244a4.498 4.498 0 0 1-3.26.313 4.384 4.384 0 0 1-2.578-1.977 4.217 4.217 0 0 1-.466-3.17 4.305 4.305 0 0 1 1.904-2.606l4.008-2.244Z"/>
  <path fill="#000" d="M396.375 445.747a6.57 6.57 0 0 0-.908-2.99 6.758 6.758 0 0 0-2.195-2.264 2.235 2.235 0 0 0-2.2-.221l.309-.174.238-.128a2.192 2.192 0 0 1 2.2.209 6.802 6.802 0 0 1 2.193 2.265c.539.913.851 1.937.91 2.99.041.376-.021.756-.18 1.101a2.151 2.151 0 0 1-.723.863l-.559.314c.317-.219.569-.516.73-.861.161-.345.225-.726.185-1.104Z" opacity=".1"/>
  <path fill="#E0E0E0" d="M387.492 450.165a4.362 4.362 0 0 1-1.846-1.485 4.233 4.233 0 0 1-.777-2.211 4.217 4.217 0 0 1 .525-2.28 4.337 4.337 0 0 1 1.67-1.673l4.008-2.244a2.234 2.234 0 0 1 2.2.221 5.24 5.24 0 0 1 1.058.814l-6.671 3.755c-2.188 1.243-1.403 4.371-.167 5.103Z"/>
  <path fill="#fff" d="M388.099 448.793a1.594 1.594 0 0 1-.168-1.247c.057-.209.156-.404.291-.575.135-.171.303-.314.495-.421l6.742-3.802a6.19 6.19 0 0 1 .916 2.999c.006.097.006.194 0 .291l-5.946 3.36a1.704 1.704 0 0 1-1.296.181 1.701 1.701 0 0 1-.599-.29 1.639 1.639 0 0 1-.435-.496Z"/>
  <path fill="#000" d="M402.821 439.237c.036.072.068.146.095.221.025.057.045.115.059.175a.826.826 0 0 1 0 .186v.302c.059.291.083.587.071.883.007.109.007.217 0 .326 0-1.407-2.378-3.639-4.601-2.395l-4.21 2.325a5.276 5.276 0 0 0-1.058-.814 2.227 2.227 0 0 0-2.2-.22l5.505-3.093a4.48 4.48 0 0 1 3.336-.434 4.429 4.429 0 0 1 1.539.742c.458.344.842.772 1.131 1.262.071.116.13.232.19.348.059.117.131.14.143.186Z" opacity=".1"/>
  <path fill="#FAFAFA" d="M358.608 466.126c.252.139.515.259.785.36l.309.117a9.535 9.535 0 0 0 7.135-.628l7.432-4.197a5.179 5.179 0 0 0 2.141-2.011 5.059 5.059 0 0 0 .534-3.933 5.128 5.128 0 0 0-.915-1.814 5.273 5.273 0 0 0-2.342-1.693l-.309-.104a9.561 9.561 0 0 0-7.135.616l-7.432 4.196h-.06a5.257 5.257 0 0 0-2.058 1.859 5.096 5.096 0 0 0-.803 2.625 5.1 5.1 0 0 0 .678 2.658 5.255 5.255 0 0 0 1.969 1.949h.071Z" opacity=".7" style="mix-blend-mode:hard-light"/>
  <path fill="#E0E0E0" d="M374.531 457.14a9.315 9.315 0 0 0-8.229.151l-7.432 4.197c-2.378 1.325-2.461 3.394-.262 4.65a9.278 9.278 0 0 0 8.229-.151l7.432-4.197c2.343-1.325 2.462-3.406.262-4.65Z"/>
  <path fill="#fff" d="M376.576 459.546a5.077 5.077 0 0 0 .395-3.848 5.202 5.202 0 0 0-2.44-3.045 6.057 6.057 0 0 0-.785-.361l-.309-.104a9.787 9.787 0 0 0-6.208.186c3.485-.337 5.625-.442 7.813 1.348a5.253 5.253 0 0 1 1.701 2.677 5.156 5.156 0 0 1-.167 3.147Z"/>
  <path fill="#F5F5F5" d="M363.341 456.07a2.202 2.202 0 0 1 2.2.21 6.774 6.774 0 0 1 2.193 2.265c.539.913.851 1.937.91 2.989.041.376-.021.757-.18 1.102a2.151 2.151 0 0 1-.723.863l-4.008 2.243a4.476 4.476 0 0 1-3.333.427 4.378 4.378 0 0 1-2.666-2.002 4.21 4.21 0 0 1-.437-3.259 4.31 4.31 0 0 1 2.048-2.606l3.996-2.232Z"/>
  <path fill="#FFA8A7" d="M368.847 452.967a4.45 4.45 0 0 1 1.647-.62 4.499 4.499 0 0 1 1.764.064 4.438 4.438 0 0 1 1.596.736c.476.348.875.787 1.172 1.29a4.223 4.223 0 0 1-.409 4.883 4.357 4.357 0 0 1-1.371 1.086l-5.493 3.093c.315-.22.564-.518.723-.863.159-.345.221-.726.18-1.102a6.606 6.606 0 0 0-.91-2.989 6.783 6.783 0 0 0-2.193-2.265 2.202 2.202 0 0 0-2.2-.21l5.494-3.103Z"/>
  <path fill="#fff" d="M373.948 456.954a1.662 1.662 0 0 0-.434-.485 1.723 1.723 0 0 0-1.873-.12l-6.659 3.744a6.392 6.392 0 0 0 2.2 2.325l.273.139 5.875-3.301a1.655 1.655 0 0 0 .815-1.021 1.603 1.603 0 0 0-.197-1.281Z" opacity=".4"/>
  <path fill="#F5F5F5" d="M363.341 456.07a2.202 2.202 0 0 1 2.2.21 6.774 6.774 0 0 1 2.193 2.265c.539.913.851 1.937.91 2.989.041.376-.021.757-.18 1.102a2.151 2.151 0 0 1-.723.863l-4.008 2.243a4.476 4.476 0 0 1-3.333.427 4.378 4.378 0 0 1-2.666-2.002 4.21 4.21 0 0 1-.437-3.259 4.31 4.31 0 0 1 2.048-2.606l3.996-2.232Z"/>
  <path fill="#000" d="M368.645 461.534a6.62 6.62 0 0 0-.911-2.989 6.774 6.774 0 0 0-2.193-2.265 2.203 2.203 0 0 0-2.2-.21l.321-.186.238-.128a2.24 2.24 0 0 1 2.188.21 6.752 6.752 0 0 1 2.197 2.263c.539.913.85 1.938.907 2.991.041.377-.02.757-.179 1.103a2.139 2.139 0 0 1-.725.862l-.547.314c.315-.22.564-.518.723-.863.159-.345.221-.726.181-1.102Z" opacity=".1"/>
  <path fill="#E0E0E0" d="M359.762 465.952a4.372 4.372 0 0 1-1.844-1.488 4.206 4.206 0 0 1-.244-4.491 4.33 4.33 0 0 1 1.672-1.671l3.995-2.232a2.203 2.203 0 0 1 2.2.21c.393.222.753.496 1.07.813l-6.671 3.767c-2.188 1.244-1.415 4.359-.178 5.092Z"/>
  <path fill="#fff" d="M360.368 464.58a1.622 1.622 0 0 1-.163-1.246 1.66 1.66 0 0 1 .782-.998l6.742-3.801c.564.906.88 1.939.916 2.999.006.097.006.194 0 .291l-5.946 3.359a1.711 1.711 0 0 1-1.295.177 1.712 1.712 0 0 1-.598-.289 1.661 1.661 0 0 1-.438-.492Z"/>
  <path fill="#000" d="M375.102 455.024c0 .07.059.151.095.233.036.081 0 .104 0 .162 0 .059 0 .128.059.186.06.059 0 .128 0 .198v.105c.048.292.071.587.072.883v.314c0-1.407-2.379-3.627-4.602-2.395l-4.21 2.325a4.972 4.972 0 0 0-1.07-.813 2.193 2.193 0 0 0-2.2-.21l5.506-3.104a4.504 4.504 0 0 1 3.34-.43 4.4 4.4 0 0 1 2.677 2l.178.36c.057.058.109.12.155.186Z" opacity=".1"/>
  <path fill="#FAFAFA" d="M406.233 461.569c.251.141.514.262.785.36l.309.117a9.53 9.53 0 0 0 7.135-.628l7.444-4.197a5.246 5.246 0 0 0 2.18-2.037 5.083 5.083 0 0 0 .687-2.87 5.105 5.105 0 0 0-1.028-2.771 5.282 5.282 0 0 0-2.41-1.773l-.309-.104a9.504 9.504 0 0 0-7.135.616l-7.444 4.196a5.252 5.252 0 0 0-2.067 1.856 5.083 5.083 0 0 0-.125 5.289 5.235 5.235 0 0 0 1.978 1.946Z" opacity=".7" style="mix-blend-mode:hard-light"/>
  <path fill="#E0E0E0" d="M422.156 452.583a9.259 9.259 0 0 0-4.133-.886 9.253 9.253 0 0 0-4.096 1.037l-7.432 4.197c-2.378 1.313-2.462 3.394-.262 4.65a9.248 9.248 0 0 0 8.217-.151l7.444-4.197c2.343-1.337 2.45-3.406.262-4.65Z"/>
  <path fill="#fff" d="M424.201 454.989a5.077 5.077 0 0 0 .395-3.848 5.202 5.202 0 0 0-2.44-3.045 5.359 5.359 0 0 0-.785-.361l-.309-.104a9.784 9.784 0 0 0-6.207.186c3.484-.349 5.624-.442 7.812 1.348a5.246 5.246 0 0 1 1.701 2.677 5.148 5.148 0 0 1-.167 3.147Z"/>
  <path fill="#F5F5F5" d="M410.966 451.502a2.227 2.227 0 0 1 2.2.221 6.749 6.749 0 0 1 2.195 2.264 6.58 6.58 0 0 1 .909 2.99c.041.378-.022.76-.183 1.105a2.125 2.125 0 0 1-.733.86l-3.996 2.243a4.48 4.48 0 0 1-4.87-.314 4.331 4.331 0 0 1-1.129-1.261 4.207 4.207 0 0 1-.437-3.258c.15-.545.408-1.055.759-1.503.352-.447.79-.822 1.289-1.104l3.996-2.243Z"/>
  <path fill="#FFA8A7" d="M416.507 448.41a4.49 4.49 0 0 1 3.261-.313 4.39 4.39 0 0 1 2.578 1.976c.567.959.733 2.095.466 3.17a4.307 4.307 0 0 1-1.905 2.607l-5.589 3.092c.319-.217.573-.514.734-.86.161-.345.224-.727.182-1.105a6.592 6.592 0 0 0-.908-2.99 6.752 6.752 0 0 0-2.196-2.264 2.227 2.227 0 0 0-2.2-.221l5.577-3.092Z"/>
  <path fill="#fff" d="M421.573 452.397a1.662 1.662 0 0 0-.434-.485 1.723 1.723 0 0 0-1.873-.12l-6.659 3.744a6.277 6.277 0 0 0 2.2 2.266l.274.14 5.874-3.302c.385-.218.665-.577.781-.997.116-.42.057-.868-.163-1.246Z" opacity=".4"/>
  <path fill="#F5F5F5" d="M410.966 451.502a2.227 2.227 0 0 1 2.2.221 6.749 6.749 0 0 1 2.195 2.264 6.58 6.58 0 0 1 .909 2.99c.041.378-.022.76-.183 1.105a2.125 2.125 0 0 1-.733.86l-3.996 2.243a4.48 4.48 0 0 1-4.87-.314 4.331 4.331 0 0 1-1.129-1.261 4.207 4.207 0 0 1-.437-3.258c.15-.545.408-1.055.759-1.503.352-.447.79-.822 1.289-1.104l3.996-2.243Z"/>
  <path fill="#000" d="M416.269 456.977a6.575 6.575 0 0 0-.908-2.991 6.755 6.755 0 0 0-2.195-2.263 2.219 2.219 0 0 0-2.2-.221l.321-.175.238-.128a2.188 2.188 0 0 1 2.188.21 6.783 6.783 0 0 1 2.193 2.265c.539.913.851 1.937.91 2.989a2.09 2.09 0 0 1-.18 1.102 2.151 2.151 0 0 1-.723.863l-.559.314c.319-.217.572-.514.733-.86.161-.346.224-.727.182-1.105Z" opacity=".1"/>
  <path fill="#E0E0E0" d="M407.387 461.395a4.372 4.372 0 0 1-1.844-1.488 4.214 4.214 0 0 1-.245-4.491 4.344 4.344 0 0 1 1.672-1.671l3.996-2.243a2.227 2.227 0 0 1 2.2.221c.391.225.75.499 1.07.813l-6.671 3.755c-2.2 1.244-1.415 4.371-.178 5.104Z"/>
  <path fill="#fff" d="M407.993 460.023a1.61 1.61 0 0 1 .124-1.822 1.67 1.67 0 0 1 .494-.422l6.707-3.813c.564.906.88 1.939.916 2.999v.291l-5.946 3.36a1.723 1.723 0 0 1-1.272.164 1.685 1.685 0 0 1-1.023-.757Z"/>
  <path fill="#000" d="M422.726 450.479c.033.071.061.145.084.221a.964.964 0 0 1 .059.174v.488c.059.291.083.588.072.884.006.108.006.217 0 .325 0-1.406-2.379-3.638-4.602-2.394l-4.198 2.325a5.306 5.306 0 0 0-1.07-.814 2.223 2.223 0 0 0-2.2-.221l5.506-3.092a4.478 4.478 0 0 1 3.301-.407 4.38 4.38 0 0 1 2.644 1.976c.071.116.134.237.19.36.078.051.149.11.214.175Z" opacity=".1"/>
  <path fill="#FAFAFA" d="M378.455 477.356c.252.139.515.259.785.36.1.045.204.084.309.116a9.546 9.546 0 0 0 7.135-.628l7.432-4.196h.06a5.261 5.261 0 0 0 2.055-1.861c.503-.79.778-1.697.799-2.626a5.097 5.097 0 0 0-.681-2.657 5.255 5.255 0 0 0-1.971-1.947 6.113 6.113 0 0 0-.785-.36l-.309-.105a9.566 9.566 0 0 0-7.135.616l-7.432 4.197a5.267 5.267 0 0 0-2.059 1.859 5.086 5.086 0 0 0-.124 5.282 5.25 5.25 0 0 0 1.969 1.95h-.048Z" opacity=".7" style="mix-blend-mode:hard-light"/>
  <path fill="#E0E0E0" d="M394.425 468.37a9.273 9.273 0 0 0-4.127-.882 9.271 9.271 0 0 0-4.09 1.033l-7.444 4.196c-2.378 1.326-2.449 3.395-.261 4.65a9.253 9.253 0 0 0 4.156.898 9.25 9.25 0 0 0 4.12-1.049l7.432-4.196c2.295-1.326 2.414-3.407.214-4.65Z"/>
  <path fill="#fff" d="M396.47 470.776a5.08 5.08 0 0 0 .395-3.849 5.208 5.208 0 0 0-3.225-3.405l-.309-.105a9.797 9.797 0 0 0-6.207.186c3.484-.337 5.636-.441 7.812 1.36a5.232 5.232 0 0 1 1.703 2.671 5.133 5.133 0 0 1-.169 3.142Z"/>
  <path fill="#F5F5F5" d="M383.212 467.3a2.179 2.179 0 0 1 2.188.209 6.796 6.796 0 0 1 2.193 2.266c.539.912.851 1.936.91 2.989.041.376-.021.756-.18 1.102a2.151 2.151 0 0 1-.724.862l-3.995 2.244a4.488 4.488 0 0 1-3.26.313 4.384 4.384 0 0 1-2.578-1.977 4.216 4.216 0 0 1-.466-3.17 4.308 4.308 0 0 1 1.904-2.606l4.008-2.232Z"/>
  <path fill="#FFA8A7" d="M388.753 464.196a4.48 4.48 0 0 1 4.87.315 4.34 4.34 0 0 1 1.129 1.26 4.213 4.213 0 0 1-.322 4.761 4.36 4.36 0 0 1-1.289 1.104l-5.506 3.092a2.14 2.14 0 0 0 .723-.862c.159-.346.221-.726.181-1.102a6.612 6.612 0 0 0-.911-2.989 6.786 6.786 0 0 0-2.193-2.266 2.18 2.18 0 0 0-2.188-.209l5.506-3.104Z"/>
  <path fill="#fff" d="M393.843 468.184a1.678 1.678 0 0 0-1.019-.769 1.722 1.722 0 0 0-1.276.164l-6.66 3.743a6.255 6.255 0 0 0 2.188 2.267l.274.14 5.874-3.302c.192-.107.36-.25.495-.421a1.612 1.612 0 0 0 .124-1.822Z" opacity=".4"/>
  <path fill="#F5F5F5" d="M383.212 467.3a2.179 2.179 0 0 1 2.188.209 6.796 6.796 0 0 1 2.193 2.266c.539.912.851 1.936.91 2.989.041.376-.021.756-.18 1.102a2.151 2.151 0 0 1-.724.862l-3.995 2.244a4.488 4.488 0 0 1-3.26.313 4.384 4.384 0 0 1-2.578-1.977 4.216 4.216 0 0 1-.466-3.17 4.308 4.308 0 0 1 1.904-2.606l4.008-2.232Z"/>
  <path fill="#000" d="M388.539 472.764a6.612 6.612 0 0 0-.911-2.989 6.786 6.786 0 0 0-2.193-2.266 2.18 2.18 0 0 0-2.188-.209l.309-.186.238-.128a2.253 2.253 0 0 1 2.2.209 6.784 6.784 0 0 1 2.226 2.257c.55.913.871 1.94.937 2.998a2.08 2.08 0 0 1-.184 1.104 2.138 2.138 0 0 1-.731.861l-.548.313c.305-.226.543-.527.691-.872.148-.344.201-.721.154-1.092Z" opacity=".1"/>
  <path fill="#E0E0E0" d="M379.644 477.216a4.296 4.296 0 0 1-2.022-1.779 4.205 4.205 0 0 1 .315-4.765c.352-.448.79-.823 1.291-1.105l4.007-2.232a2.18 2.18 0 0 1 2.188.209c.396.224.756.502 1.07.826-2.378 1.302-5.184 2.906-6.671 3.754-2.176 1.198-1.367 4.336-.178 5.092Z"/>
  <path fill="#fff" d="M380.274 475.81a1.623 1.623 0 0 1-.168-1.244c.114-.42.392-.779.775-1l6.754-3.801c.556.909.867 1.941.904 2.999.006.101.006.201 0 .302l-5.946 3.348a1.694 1.694 0 0 1-1.29.175 1.687 1.687 0 0 1-1.029-.779Z"/>
  <path fill="#000" d="M394.996 466.254c0 .07 0 .151.095.232.016.056.036.11.059.163v.186c.006.066.006.132 0 .198v.104c.048.296.072.596.072.895v.314c0-1.406-2.379-3.627-4.602-2.394-.749.418-1.891 1.046-4.21 2.325a4.758 4.758 0 0 0-1.07-.826 2.18 2.18 0 0 0-2.188-.209l5.506-3.104a4.49 4.49 0 0 1 3.3-.402 4.388 4.388 0 0 1 2.645 1.972c.072.114.131.234.179.36.09.037.166.102.214.186Z" opacity=".1"/>
  <path fill="#FAFAFA" d="M426.127 472.799c.253.139.515.259.785.36l.309.116a9.553 9.553 0 0 0 7.135-.627l7.432-4.197h.06a5.182 5.182 0 0 0 2.14-2.011 5.077 5.077 0 0 0 .54-3.935 5.11 5.11 0 0 0-.918-1.814 5.247 5.247 0 0 0-2.345-1.691l-.309-.105a9.566 9.566 0 0 0-7.135.616l-7.432 4.197h-.059a5.246 5.246 0 0 0-2.068 1.855 5.08 5.08 0 0 0-.124 5.289 5.23 5.23 0 0 0 1.978 1.947h.011Z" opacity=".7" style="mix-blend-mode:hard-light"/>
  <path fill="#E0E0E0" d="M442.05 463.813a9.273 9.273 0 0 0-8.229.151l-7.432 4.196c-2.378 1.326-2.461 3.395-.261 4.65a9.272 9.272 0 0 0 8.228-.151l7.432-4.196c2.343-1.326 2.462-3.407.262-4.65Z"/>
  <path fill="#fff" d="M444.095 466.219a5.08 5.08 0 0 0 .395-3.849 5.208 5.208 0 0 0-3.225-3.405l-.309-.105a9.797 9.797 0 0 0-6.207.186c3.484-.348 5.624-.441 7.812 1.349a5.246 5.246 0 0 1 1.701 2.677 5.148 5.148 0 0 1-.167 3.147Z"/>
  <path fill="#F5F5F5" d="M430.86 462.743a2.193 2.193 0 0 1 2.2.209 6.786 6.786 0 0 1 2.193 2.266c.539.912.851 1.936.911 2.989.041.376-.022.756-.181 1.101a2.137 2.137 0 0 1-.723.863l-3.995 2.244a4.49 4.49 0 0 1-3.261.313 4.387 4.387 0 0 1-2.578-1.977 4.22 4.22 0 0 1-.466-3.17 4.31 4.31 0 0 1 1.905-2.606l3.995-2.232Z"/>
  <path fill="#FFA8A7" d="M436.378 459.639a4.48 4.48 0 0 1 4.87.315 4.34 4.34 0 0 1 1.129 1.26 4.213 4.213 0 0 1-.322 4.761c-.352.447-.79.823-1.289 1.104l-5.506 3.092c.315-.22.565-.517.723-.863.159-.345.221-.725.181-1.101a6.612 6.612 0 0 0-.911-2.989 6.786 6.786 0 0 0-2.193-2.266 2.193 2.193 0 0 0-2.2-.209l5.518-3.104Z"/>
  <path fill="#fff" d="M441.479 463.627a1.683 1.683 0 0 0-1.019-.769 1.71 1.71 0 0 0-1.276.164l-6.683 3.732a6.392 6.392 0 0 0 2.2 2.325l.274.139 5.874-3.301c.199-.107.374-.251.515-.425a1.618 1.618 0 0 0 .115-1.865Z" opacity=".4"/>
  <path fill="#F5F5F5" d="M430.86 462.743a2.193 2.193 0 0 1 2.2.209 6.786 6.786 0 0 1 2.193 2.266c.539.912.851 1.936.911 2.989.041.376-.022.756-.181 1.101a2.137 2.137 0 0 1-.723.863l-3.995 2.244a4.49 4.49 0 0 1-3.261.313 4.387 4.387 0 0 1-2.578-1.977 4.22 4.22 0 0 1-.466-3.17 4.31 4.31 0 0 1 1.905-2.606l3.995-2.232Z"/>
  <path fill="#000" d="M436.164 468.207a6.612 6.612 0 0 0-.911-2.989 6.786 6.786 0 0 0-2.193-2.266 2.193 2.193 0 0 0-2.2-.209l.321-.186.238-.128a2.18 2.18 0 0 1 2.188.209 6.777 6.777 0 0 1 2.208 2.273c.541.917.852 1.947.908 3.005a2.1 2.1 0 0 1-.186 1.104 2.156 2.156 0 0 1-.73.861l-.547.314c.319-.222.571-.524.73-.874.159-.349.219-.734.174-1.114Z" opacity=".1"/>
  <path fill="#E0E0E0" d="M427.281 472.624a4.3 4.3 0 0 1-2.022-1.778 4.206 4.206 0 0 1-.415-3.228 4.301 4.301 0 0 1 2.021-2.585l3.995-2.232a2.193 2.193 0 0 1 2.2.209 5.01 5.01 0 0 1 1.07.814l-6.671 3.767c-2.188 1.174-1.439 4.301-.178 5.033Z"/>
  <path fill="#fff" d="M427.899 471.253a1.627 1.627 0 0 1-.173-1.245 1.651 1.651 0 0 1 .78-.999l6.742-3.801c.564.906.88 1.939.916 2.999.006.097.006.194 0 .29l-5.946 3.36a1.694 1.694 0 0 1-1.29.175 1.687 1.687 0 0 1-1.029-.779Z"/>
  <path fill="#000" d="M442.669 461.697c0 .07.059.151.095.221.035.07 0 .116 0 .174.025.06.045.123.059.186v.302c.048.293.071.588.072.884v.325c0-1.406-2.379-3.638-4.602-2.394l-4.21 2.325a4.945 4.945 0 0 0-1.07-.814 2.184 2.184 0 0 0-2.2-.209l5.518-3.104a4.489 4.489 0 0 1 3.334-.43 4.393 4.393 0 0 1 2.671 1.999l.178.361c.057.053.108.112.155.174Z" opacity=".1"/>
  <path fill="#FAFAFA" d="M398.409 488.585c.249.141.507.265.773.372l.309.105a9.546 9.546 0 0 0 7.135-.628l7.432-4.196h.059a5.256 5.256 0 0 0 2.068-1.856 5.097 5.097 0 0 0 .806-2.627 5.084 5.084 0 0 0-.682-2.662 5.228 5.228 0 0 0-1.978-1.946 7.711 7.711 0 0 0-.784-.36l-.322-.105a9.564 9.564 0 0 0-7.134.616l-7.421 4.162h-.059a5.257 5.257 0 0 0-2.056 1.861 5.105 5.105 0 0 0-.799 2.626c-.02.929.215 1.847.682 2.657a5.231 5.231 0 0 0 1.971 1.946v.035Z" opacity=".7" style="mix-blend-mode:hard-light"/>
  <path fill="#E0E0E0" d="M414.319 479.599a9.286 9.286 0 0 0-8.217.151l-7.432 4.197c-2.378 1.325-2.461 3.394-.261 4.65a9.247 9.247 0 0 0 4.127.886 9.241 9.241 0 0 0 4.09-1.037l7.432-4.197c2.342-1.325 2.449-3.406.261-4.65Z"/>
  <path fill="#fff" d="M416.365 482.006a5.085 5.085 0 0 0 .4-3.847 5.205 5.205 0 0 0-2.434-3.047 7.63 7.63 0 0 0-.785-.36l-.321-.105a9.875 9.875 0 0 0-6.231.244c3.484-.337 5.637-.442 7.825 1.36a5.243 5.243 0 0 1 1.686 2.643 5.147 5.147 0 0 1-.14 3.112Z"/>
  <path fill="#F5F5F5" d="M403.142 478.53a2.179 2.179 0 0 1 2.188.209 6.749 6.749 0 0 1 2.196 2.263c.54.913.851 1.938.907 2.992.041.376-.021.756-.18 1.101a2.151 2.151 0 0 1-.723.863l-3.996 2.255a4.488 4.488 0 0 1-3.339.43 4.39 4.39 0 0 1-2.672-2.005 4.21 4.21 0 0 1-.439-3.264 4.313 4.313 0 0 1 2.05-2.612l4.008-2.232Z"/>
  <path fill="#FFA8A7" d="M408.647 475.426a4.493 4.493 0 0 1 3.411-.556 4.46 4.46 0 0 1 1.597.736c.476.349.874.787 1.172 1.291a4.221 4.221 0 0 1-.409 4.882 4.386 4.386 0 0 1-1.371 1.087l-5.518 3.092c.315-.22.565-.518.724-.863a2.1 2.1 0 0 0 .18-1.102 6.57 6.57 0 0 0-.907-2.991 6.742 6.742 0 0 0-2.197-2.263 2.182 2.182 0 0 0-2.188-.209l5.506-3.104Z"/>
  <path fill="#fff" d="M413.737 479.413a1.671 1.671 0 0 0-1.019-.768 1.701 1.701 0 0 0-1.276.164l-6.66 3.743a6.19 6.19 0 0 0 2.2 2.325c.085.051.172.098.262.139l5.874-3.301a1.63 1.63 0 0 0 .816-1.021 1.628 1.628 0 0 0-.197-1.281Z" opacity=".4"/>
  <path fill="#F5F5F5" d="M403.142 478.53a2.179 2.179 0 0 1 2.188.209 6.749 6.749 0 0 1 2.196 2.263c.54.913.851 1.938.907 2.992.041.376-.021.756-.18 1.101a2.151 2.151 0 0 1-.723.863l-3.996 2.255a4.488 4.488 0 0 1-3.339.43 4.39 4.39 0 0 1-2.672-2.005 4.21 4.21 0 0 1-.439-3.264 4.313 4.313 0 0 1 2.05-2.612l4.008-2.232Z"/>
  <path fill="#000" d="M408.433 483.994a6.57 6.57 0 0 0-.907-2.992 6.742 6.742 0 0 0-2.197-2.263 2.182 2.182 0 0 0-2.188-.209l.286-.151.238-.128a2.249 2.249 0 0 1 2.2.209 6.811 6.811 0 0 1 2.193 2.265c.539.913.851 1.937.91 2.99.043.377-.019.759-.18 1.105a2.12 2.12 0 0 1-.735.859l-.547.314a2.15 2.15 0 0 0 .746-.875c.163-.352.226-.74.181-1.124Z" opacity=".1"/>
  <path fill="#E0E0E0" d="M399.55 488.411a4.381 4.381 0 0 1-1.834-1.492 4.239 4.239 0 0 1-.768-2.208 4.232 4.232 0 0 1 .524-2.276 4.344 4.344 0 0 1 1.662-1.673l4.008-2.232a2.179 2.179 0 0 1 2.188.209c.395.224.756.501 1.07.825l-6.671 3.755c-2.188 1.233-1.403 4.36-.179 5.092Z"/>
  <path fill="#fff" d="M400.169 487.039a1.613 1.613 0 0 1-.168-1.247c.057-.209.156-.404.291-.575.135-.171.303-.314.495-.421l6.742-3.802c.556.909.867 1.941.904 2.999.006.101.006.202 0 .303l-5.946 3.348a1.695 1.695 0 0 1-1.289.175 1.679 1.679 0 0 1-1.029-.78Z"/>
  <path fill="#000" d="M414.89 477.484a1.3 1.3 0 0 1 .095.232v.349c.004.066.004.132 0 .197v.105c.06.295.084.595.071.895.006.105.006.209 0 .314 0-1.407-2.378-3.627-4.601-2.395-.75.43-1.891 1.047-4.21 2.325a4.725 4.725 0 0 0-1.07-.825 2.179 2.179 0 0 0-2.188-.209l5.505-3.104a4.47 4.47 0 0 1 4.875.307 4.342 4.342 0 0 1 1.321 1.623s.19.139.202.186Z" opacity=".1"/>
  <path fill="#FAFAFA" d="M446.022 484.028c.247.141.505.262.773.361l.309.116a9.565 9.565 0 0 0 7.135-.628l7.432-4.196h.059a5.252 5.252 0 0 0 2.056-1.862 5.104 5.104 0 0 0 .799-2.625 5.094 5.094 0 0 0-.681-2.657 5.243 5.243 0 0 0-1.972-1.947 6.548 6.548 0 0 0-.773-.361l-.321-.104a9.56 9.56 0 0 0-7.134.616l-7.409 4.15h-.059a5.267 5.267 0 0 0-2.059 1.859 5.091 5.091 0 0 0-.124 5.283 5.255 5.255 0 0 0 1.969 1.949v.046Z" opacity=".7" style="mix-blend-mode:hard-light"/>
  <path fill="#E0E0E0" d="M461.944 475.042a9.248 9.248 0 0 0-8.217.151l-7.432 4.197c-2.378 1.325-2.461 3.395-.273 4.65a9.259 9.259 0 0 0 4.133.886 9.257 9.257 0 0 0 4.096-1.037l7.432-4.197c2.39-1.313 2.461-3.406.261-4.65Z"/>
  <path fill="#fff" d="M463.99 477.449a5.07 5.07 0 0 0 .399-3.85 5.194 5.194 0 0 0-2.444-3.044 6.693 6.693 0 0 0-.773-.36l-.321-.105a9.794 9.794 0 0 0-6.208.186c3.484-.337 5.637-.442 7.825 1.349a5.257 5.257 0 0 1 1.692 2.679 5.165 5.165 0 0 1-.17 3.145Z"/>
  <path fill="#F5F5F5" d="M450.767 473.973a2.179 2.179 0 0 1 2.188.209 6.783 6.783 0 0 1 2.193 2.265c.539.913.851 1.937.91 2.989a2.09 2.09 0 0 1-.18 1.102 2.16 2.16 0 0 1-.723.863l-3.996 2.244a4.472 4.472 0 0 1-3.411.555 4.426 4.426 0 0 1-1.597-.736 4.349 4.349 0 0 1-1.172-1.29 4.215 4.215 0 0 1-.415-3.356 4.295 4.295 0 0 1 .824-1.527 4.383 4.383 0 0 1 1.371-1.086l4.008-2.232Z"/>
  <path fill="#FFA8A7" d="M456.272 470.869a4.49 4.49 0 0 1 3.261-.313 4.382 4.382 0 0 1 2.577 1.977c.567.958.734 2.094.466 3.17a4.308 4.308 0 0 1-1.904 2.606l-5.518 3.092c.315-.22.565-.518.724-.863.159-.345.221-.725.18-1.101a6.606 6.606 0 0 0-.91-2.99 6.811 6.811 0 0 0-2.193-2.265 2.177 2.177 0 0 0-2.188-.209l5.505-3.104Z"/>
  <path fill="#fff" d="M461.362 474.891a1.66 1.66 0 0 0-1.019-.768 1.703 1.703 0 0 0-1.276.164l-6.659 3.743a6.254 6.254 0 0 0 2.188 2.267l.273.139 5.874-3.301c.192-.108.36-.251.495-.422a1.612 1.612 0 0 0 .124-1.822Z" opacity=".4"/>
  <path fill="#F5F5F5" d="M450.767 473.973a2.179 2.179 0 0 1 2.188.209 6.783 6.783 0 0 1 2.193 2.265c.539.913.851 1.937.91 2.989a2.09 2.09 0 0 1-.18 1.102 2.16 2.16 0 0 1-.723.863l-3.996 2.244a4.472 4.472 0 0 1-3.411.555 4.426 4.426 0 0 1-1.597-.736 4.349 4.349 0 0 1-1.172-1.29 4.215 4.215 0 0 1-.415-3.356 4.295 4.295 0 0 1 .824-1.527 4.383 4.383 0 0 1 1.371-1.086l4.008-2.232Z"/>
  <path fill="#000" d="M456.058 479.436a6.606 6.606 0 0 0-.91-2.989 6.793 6.793 0 0 0-2.193-2.265 2.177 2.177 0 0 0-2.188-.209l.309-.186.238-.128a2.19 2.19 0 0 1 2.199.209 6.805 6.805 0 0 1 2.194 2.265c.539.913.851 1.937.91 2.99.043.377-.019.759-.18 1.105a2.123 2.123 0 0 1-.736.859l-.547.314c.315-.22.565-.518.724-.863a2.09 2.09 0 0 0 .18-1.102Z" opacity=".1"/>
  <path fill="#E0E0E0" d="M447.176 483.854a4.384 4.384 0 0 1-1.835-1.492 4.239 4.239 0 0 1-.768-2.208 4.232 4.232 0 0 1 .524-2.276 4.344 4.344 0 0 1 1.662-1.673l4.008-2.232a2.179 2.179 0 0 1 2.188.209c.393.222.753.496 1.07.814l-6.671 3.766c-2.188 1.232-1.403 4.36-.178 5.092Z"/>
  <path fill="#fff" d="M447.794 482.482a1.594 1.594 0 0 1-.168-1.247c.057-.209.156-.404.291-.575.135-.171.303-.314.495-.421l6.742-3.802c.556.909.867 1.941.904 2.999.006.097.006.194 0 .291l-5.945 3.36a1.725 1.725 0 0 1-1.29.175 1.679 1.679 0 0 1-1.029-.78Z"/>
  <path fill="#000" d="M462.515 472.927a1.3 1.3 0 0 1 .095.232s0 .105.06.163c.059.058 0 .128 0 .186a1.08 1.08 0 0 1 0 .197v.105c.059.291.083.587.071.884.006.104.006.209 0 .313 0-1.406-2.378-3.638-4.602-2.394l-4.209 2.325a4.975 4.975 0 0 0-1.071-.814 2.182 2.182 0 0 0-2.188-.209l5.506-3.104a4.471 4.471 0 0 1 4.875.307c.458.344.842.773 1.13 1.262.072.114.131.235.179.361.068.046.122.11.154.186Z" opacity=".1"/>
  <path fill="#FAFAFA" d="M418.303 499.815c.249.147.512.272.785.372l.309.105a9.53 9.53 0 0 0 7.135-.628l7.432-4.197h.059a5.246 5.246 0 0 0 2.068-1.855 5.08 5.08 0 0 0 .124-5.289 5.228 5.228 0 0 0-1.978-1.946 7.719 7.719 0 0 0-.784-.361l-.31-.104a9.598 9.598 0 0 0-7.134.616l-7.433 4.196a5.145 5.145 0 0 0-2.152 2.011 5.064 5.064 0 0 0-.539 3.935 5.12 5.12 0 0 0 .917 1.815c.425.539.956.992 1.56 1.33h-.059Z" opacity=".7" style="mix-blend-mode:hard-light"/>
  <path fill="#E0E0E0" d="M434.214 490.829a9.29 9.29 0 0 0-8.217.151l-7.432 4.197c-2.379 1.325-2.462 3.394-.262 4.65a9.234 9.234 0 0 0 4.127.887 9.23 9.23 0 0 0 4.09-1.038l7.432-4.197c2.343-1.325 2.462-3.406.262-4.65Z"/>
  <path fill="#fff" d="M436.271 493.235a5.082 5.082 0 0 0 .395-3.848 5.203 5.203 0 0 0-2.441-3.045 7.719 7.719 0 0 0-.784-.361l-.31-.104a9.791 9.791 0 0 0-6.207.197c3.472-.348 5.625-.453 7.813 1.349a5.231 5.231 0 0 1 1.702 2.67 5.132 5.132 0 0 1-.168 3.142Z"/>
  <path fill="#F5F5F5" d="M423.036 489.76a2.19 2.19 0 0 1 2.2.209 6.783 6.783 0 0 1 2.193 2.265c.539.913.851 1.937.91 2.989.042.378-.021.76-.182 1.105a2.125 2.125 0 0 1-.733.86l-3.996 2.255a4.493 4.493 0 0 1-3.339.43 4.392 4.392 0 0 1-2.672-2.005 4.221 4.221 0 0 1-.439-3.265 4.316 4.316 0 0 1 2.05-2.612l4.008-2.231Z"/>
  <path fill="#FFA8A7" d="M428.541 486.656a4.46 4.46 0 0 1 1.648-.62 4.499 4.499 0 0 1 1.764.064c.577.137 1.12.388 1.596.736s.875.787 1.172 1.29a4.223 4.223 0 0 1-.409 4.883 4.374 4.374 0 0 1-1.371 1.087l-5.517 3.092c.319-.217.572-.514.733-.86.161-.345.224-.727.182-1.105a6.606 6.606 0 0 0-.91-2.989 6.783 6.783 0 0 0-2.193-2.265 2.202 2.202 0 0 0-2.2-.21l5.505-3.103Z"/>
  <path fill="#fff" d="M433.631 490.643a1.66 1.66 0 0 0-1.019-.769 1.721 1.721 0 0 0-1.276.164l-6.659 3.744a6.288 6.288 0 0 0 2.2 2.267c.084.051.172.097.261.139l5.886-3.301c.191-.109.358-.253.492-.424a1.603 1.603 0 0 0 .115-1.82Z" opacity=".4"/>
  <path fill="#F5F5F5" d="M423.036 489.76a2.19 2.19 0 0 1 2.2.209 6.783 6.783 0 0 1 2.193 2.265c.539.913.851 1.937.91 2.989.042.378-.021.76-.182 1.105a2.125 2.125 0 0 1-.733.86l-3.996 2.255a4.493 4.493 0 0 1-3.339.43 4.392 4.392 0 0 1-2.672-2.005 4.221 4.221 0 0 1-.439-3.265 4.316 4.316 0 0 1 2.05-2.612l4.008-2.231Z"/>
  <path fill="#000" d="M428.399 495.223a6.62 6.62 0 0 0-.911-2.989 6.774 6.774 0 0 0-2.193-2.265 2.203 2.203 0 0 0-2.2-.21l.309-.186.238-.127a2.24 2.24 0 0 1 2.2.209 6.774 6.774 0 0 1 2.193 2.265 6.62 6.62 0 0 1 .911 2.989c.041.377-.02.757-.179 1.103a2.139 2.139 0 0 1-.725.862l-.559.314c.319-.217.572-.514.733-.86.161-.345.224-.727.183-1.105Z" opacity=".1"/>
  <path fill="#E0E0E0" d="M419.456 499.641a4.321 4.321 0 0 1-2.033-1.779 4.218 4.218 0 0 1-.439-3.26 4.32 4.32 0 0 1 2.044-2.611l4.008-2.231a2.19 2.19 0 0 1 2.2.209c.389.232.748.509 1.07.825l-6.683 3.755c-2.188 1.267-1.403 4.371-.167 5.092Z"/>
  <path fill="#fff" d="M420.075 498.28a1.62 1.62 0 0 1 .123-1.83c.135-.172.303-.316.495-.425l6.743-3.801c.559.908.874 1.94.915 2.999v.302l-5.945 3.348a1.71 1.71 0 0 1-1.293.182 1.671 1.671 0 0 1-1.038-.775Z"/>
  <path fill="#000" d="M434.796 488.713c0 .082.06.151.083.233a.672.672 0 0 1 .06.162s0 .128.059.186c.06.059 0 .14 0 .198v.105c.06.294.084.595.072.895.006.104.006.209 0 .314 0-1.407-2.379-3.627-4.602-2.395-.749.43-1.891 1.046-4.198 2.325a5.684 5.684 0 0 0-1.07-.825 2.191 2.191 0 0 0-2.2-.21l5.506-3.104a4.47 4.47 0 0 1 4.874.308c.458.344.843.773 1.131 1.262.071.116.131.244.19.36l.095.186Z" opacity=".1"/>
  <path fill="#FFA8A7" d="M335.824 325.697c0-6.499-4.388-12.997-13.163-17.949-17.576-9.916-46.056-9.916-63.619 0-8.776 4.952-13.176 11.45-13.176 17.949v102.055c0 6.498 4.4 12.997 13.176 17.961 17.563 9.916 46.043 9.916 63.619 0 8.775-4.964 13.175-11.463 13.163-17.961V325.697Z"/>
  <path fill="#fff" d="M318.534 305.713v142.034a49.882 49.882 0 0 0 4.126-2.035 34.435 34.435 0 0 0 7.135-5.3V313.049a34 34 0 0 0-7.135-5.301 46.432 46.432 0 0 0-4.126-2.035ZM306.75 451.49a66.73 66.73 0 0 0 6.469-1.732V303.702a60.513 60.513 0 0 0-6.469-1.732v149.52Z" opacity=".4"/>
  <path fill="#000" d="M335.051 321.012a32.22 32.22 0 0 0-10.464-8.893c-17.338-9.777-44.688-10.463-63.417-2.023v-3.429c-.713.348-1.439.697-2.128 1.081-8.776 4.952-13.176 11.45-13.176 17.949v102.055c0 6.498 4.4 12.997 13.176 17.961 17.563 9.916 46.043 9.916 63.619 0a33.385 33.385 0 0 0 8.014-6.138c-8.324 7.637-29.193 11.845-44.664 8.869-15.47-2.976-24.841-12.624-24.841-19.483v-3.674c8.669 4.65 20.013 6.778 31.108 6.778v-65.518c-11.095 0-22.439-1.674-31.108-6.231v-8.08c18.729 8.417 46.079 7.754 63.417-2.034a30.39 30.39 0 0 0 11.237-10.137v-14.368a14.88 14.88 0 0 0-.773-4.685Z" opacity=".1"/>
  <path fill="#000" d="M253.465 430.902V311.584c-5.054 4.255-7.599 9.184-7.599 7.754v102.078c0 12.858 4.4 19.356 13.176 24.32a57.616 57.616 0 0 0 17.147 5.987c-16.969-4.476-22.724-15.764-22.724-20.821Z" opacity=".1"/>
  <path fill="#E0E0E0" d="M338.559 305.62c0-6.893-4.661-13.787-13.972-19.041-18.67-10.474-48.838-10.474-67.424-.012-9.311 5.254-13.973 12.148-13.973 19.042v20.669c0 6.893 4.662 13.775 13.973 19.041 18.633 10.463 48.837 10.463 67.471 0 9.311-5.266 13.973-12.148 13.973-19.041V305.62h-.048Z"/>
  <path fill="#000" d="M302.267 352.399c-23.605.128-36.067-7.359-39.848-13.485-2.878-4.65-3.377-13.229-3.377-21.739 0 0-2.664-19.39-2.141-19.448.321 0-5.66-1.302-10.25-2.255a17.238 17.238 0 0 0-3.508 10.148v20.669c0 6.894 4.661 13.776 13.972 19.042 12.248 6.905 29.479 9.242 45.152 7.068Z" opacity=".1"/>
  <path fill="#000" d="M286.095 352.957c-.762 0-1.523-.058-2.284-.128v-27.074h2.284v27.202Zm-20.287-3.825c-.785-.267-1.534-.558-2.295-.848v-26.656h2.295v27.504Zm9.81 2.535c-.749-.151-1.546-.221-2.283-.384v-26.9h2.283v27.284Zm-20.988-7.894v-26.412h2.283v27.842c-.809-.511-1.546-.941-2.283-1.43Zm-10.345-11.718a15.87 15.87 0 0 1-1.189-5.812V305.62c.019-1.295.199-2.583.535-3.836h.606l.048 30.271Zm3.27 5.487v-26.133h2.295v28.633a27.533 27.533 0 0 1-2.295-2.5Zm49.277 15.345c-.761.058-1.522.093-2.295.128v-27.214h2.295v27.086Zm20.561-4.243c-.738.279-1.534.477-2.284.733V322.07h2.284v26.574Zm-9.989 2.837c-.749.151-1.534.244-2.295.383v-27.307h2.295v26.924Zm16.779-5.964v-27.156h2.295v25.784c-.63.396-1.189.802-1.891 1.163l-.404.209Zm7.967-5.789v-27.342h2.307v24.796a26.591 26.591 0 0 1-2.307 2.546Zm5.256-36.026h.987c.097.635.152 1.276.166 1.918v20.669a15.874 15.874 0 0 1-1.189 5.813l.036-28.4Z" opacity=".1"/>
  <path fill="#F5F5F5" d="M257.163 324.65c18.634 10.521 48.838 10.521 67.471 0 18.634-10.52 18.634-27.562 0-38.071-18.633-10.509-48.885-10.475-67.471-.012-18.586 10.462-18.682 27.574 0 38.083Z"/>
  <path fill="#FAFAFA" d="M327.144 323.058c15.994-10.579 15.161-26.482-2.557-36.479-9.085-5.127-20.917-7.743-32.82-7.871a54.047 54.047 0 0 0-17.409 5.813c-16.101 9.009-16.101 26.97 0 35.979 14.377 8.021 36.697 8.858 52.786 2.558Z"/>
  <path fill="#000" d="M261.634 443.701c16.137 7.929 42.298 7.929 58.434 0 16.137-7.928 16.137-20.773 0-28.702-16.136-7.928-42.297-7.928-58.434 0-16.137 7.929-16.137 20.774 0 28.702Z" opacity=".1"/>
  <path fill="#fff" d="M245.866 343.343c0 6.499 4.4 12.997 13.176 17.949 8.776 4.952 20.298 7.44 31.809 7.44v64.972c-11.511 0-23.022-2.488-31.809-7.44-8.788-4.952-13.176-11.451-13.176-17.949v-64.972Z"/>
  <path fill="#E0E0E0" d="M259.042 382.159a54.612 54.612 0 0 0 13.27 5.15v-5.266a54.613 54.613 0 0 1-13.27-5.162c-8.776-4.952-13.176-11.45-13.176-17.949v5.266c0 6.499 4.4 13.044 13.176 17.961Zm13.27 28.504a54.572 54.572 0 0 1-13.27-5.15c-8.776-4.963-13.176-11.462-13.176-17.96v5.278c0 6.498 4.4 12.996 13.176 17.948a54.107 54.107 0 0 0 13.27 5.15v-5.266Zm-13.27-14.194a54.1 54.1 0 0 0 13.27 5.185v-5.266a55.09 55.09 0 0 1-13.27-5.196c-8.776-4.964-13.176-11.463-13.176-17.961v5.278c0 6.51 4.4 12.996 13.176 17.96Z"/>
  <path fill="#fff" d="M246.782 315.955s15.53 15.263 45.496 14.473c29.966-.791 41.965-16.798 43.546-21.762 1.582-4.964.583-11.416-4.043-16.891a19.535 19.535 0 0 1 4.843 6.243 19.132 19.132 0 0 1 1.935 7.602v20.669c0 1.744.916 7.754-8.752 15.543 0 0 5.672-6.301 5.672-12.369v-14.287s-10.607 17.356-43.201 17.356-43.843-13.973-45.496-16.577Z"/>
  <path fill="#E0E0E0" d="M245.01 478.146c7.551-4.255 19.8-4.255 27.351 0 2.531 1.22 4.467 3.367 5.386 5.975 7.218 4.278 7.135 11.044-.309 15.241-7.444 4.196-19.799 4.254-27.35 0-2.985-1.686-4.757-3.79-5.399-5.976-7.218-4.278-7.123-11.032.321-15.24Z"/>
  <path fill="#F0F0F0" d="M248.839 485.761v5.056c0 2.325 1.546 4.569 4.637 6.313 6.172 3.487 16.185 3.487 22.356 0a10.643 10.643 0 0 0 3.473-2.953 5.736 5.736 0 0 0 1.189-3.36v-5.056a5.355 5.355 0 0 0-.167-1.279c0-.14-.083-.279-.131-.419a8.938 8.938 0 0 0-4.34-4.65c-5.791-3.278-14.983-3.487-21.19-.604v2.522l-2.236 1.279v-2.488a9.572 9.572 0 0 0-2.521 2.442 8.151 8.151 0 0 0-.392.662 5.174 5.174 0 0 0-.357.837 4.96 4.96 0 0 0-.321 1.698Z"/>
  <path fill="#EBEBEB" d="M259.66 477.286c5.494-1.011 11.773-.291 16.137 2.174a8.934 8.934 0 0 1 4.34 4.65c0 .139.095.279.131.418.107.419.163.848.166 1.279v5.057a5.722 5.722 0 0 1-1.189 3.36 10.626 10.626 0 0 1-3.472 2.952c-4.364 2.465-10.643 3.174-16.137 2.151l.024-22.041Z"/>
  <path fill="#FAFAFA" d="M275.797 479.46c5.803 3.267 6.148 8.451 1.058 11.951l-22.249-12.555c6.22-2.872 15.388-2.674 21.191.604Z"/>
  <path fill="#EBEBEB" d="M264.619 476.844v1.023a22.114 22.114 0 0 1 10.702 2.477c2.557 1.441 4.008 3.301 4.103 5.231a5.725 5.725 0 0 1-.723 2.63 5.862 5.862 0 0 1-1.87 2.02l-19.787-11.172a25.016 25.016 0 0 1 7.622-1.162v-1.023m0 0a24.382 24.382 0 0 0-10.012 2.011l22.249 12.555c5.089-3.488 4.756-8.684-1.059-11.951a23.273 23.273 0 0 0-11.178-2.615Z"/>
  <path fill="#fff" d="M276.867 490.085s6.148-4.65-.69-10.404c5.423 3.278 5.661 8.312.678 11.729l-22.249-12.555 22.261 11.23Z"/>
  <path fill="#FAFAFA" d="m252.406 480.122 22.249 12.555c-6.207 2.872-15.387 2.674-21.19-.604-5.803-3.278-6.184-8.451-1.059-11.951Z"/>
  <path fill="#EBEBEB" d="m252.406 481.343 19.788 11.172a24.941 24.941 0 0 1-7.611 1.162 22.1 22.1 0 0 1-10.702-2.476c-2.557-1.442-4.019-3.302-4.115-5.231a5.73 5.73 0 0 1 .723-2.631 5.868 5.868 0 0 1 1.87-2.019m.047-1.198c-5.089 3.488-4.756 8.684 1.059 11.951a23.284 23.284 0 0 0 11.189 2.615 24.364 24.364 0 0 0 10.001-2.011l-22.249-12.555Z"/>
  <path fill="#fff" d="M274.619 492.677c-6.207 2.872-15.387 2.674-21.19-.604a13.76 13.76 0 0 1-1.831-1.232c11.38 5.568 20.536 1.639 20.536 1.639l-19.728-12.358 22.213 12.555Z"/>
  <path fill="#E0E0E0" d="m254.606 481.378 22.261 12.625-.012-2.593-22.249-12.555v2.523Z"/>
  <path fill="#000" d="M274.62 492.677v2.581l2.247-1.255-2.247-1.326Z" opacity=".2"/>
  <path fill="#F0F0F0" d="M240.313 477.123v5.057c0 2.325 1.546 4.557 4.638 6.301 6.171 3.487 16.184 3.487 22.367 0a10.64 10.64 0 0 0 3.473-2.941 5.736 5.736 0 0 0 1.189-3.36v-5.057a5.166 5.166 0 0 0-.167-1.279 3.48 3.48 0 0 0-.13-.43 8.955 8.955 0 0 0-4.329-4.65c-5.803-3.266-14.983-3.487-21.19-.604v2.534l-2.236 1.267v-2.534a9.402 9.402 0 0 0-2.521 2.453c-.15.207-.285.425-.404.651-.139.27-.258.55-.357.837a5.323 5.323 0 0 0-.333 1.755Z"/>
  <path fill="#EBEBEB" d="M251.217 468.649c5.494-1.023 11.785-.302 16.149 2.162a8.942 8.942 0 0 1 4.328 4.65c.053.141.097.284.131.43.109.418.165.848.167 1.279v5.057a5.727 5.727 0 0 1-1.19 3.359 10.639 10.639 0 0 1-3.472 2.942c-4.376 2.464-10.702 3.185-16.148 2.162l.035-22.041Z"/>
  <path fill="#FAFAFA" d="M267.319 470.811c5.791 3.278 6.147 8.451 1.058 11.962l-22.249-12.532c6.207-2.894 15.388-2.697 21.191.57Z"/>
  <path fill="#EBEBEB" d="M256.129 469.23a21.96 21.96 0 0 1 10.702 2.476c2.557 1.441 4.019 3.301 4.103 5.231a5.617 5.617 0 0 1-.708 2.634 5.768 5.768 0 0 1-1.873 2.016l-19.787-11.171a24.566 24.566 0 0 1 7.61-1.163m0-1.035a24.26 24.26 0 0 0-10 2.023l22.248 12.555c5.09-3.487 4.757-8.684-1.058-11.962a23.3 23.3 0 0 0-11.19-2.616Z"/>
  <path fill="#fff" d="M268.377 481.448s6.148-4.65-.69-10.405c5.435 3.279 5.661 8.301.69 11.73l-22.249-12.532 22.249 11.207Z"/>
  <path fill="#FAFAFA" d="m243.892 471.473 22.249 12.567c-6.219 2.871-15.459 2.674-21.19-.604-5.732-3.279-6.148-8.452-1.059-11.963Z"/>
  <path fill="#EBEBEB" d="m243.964 472.706 19.787 11.16a24.734 24.734 0 0 1-7.622 1.162 22.113 22.113 0 0 1-10.702-2.476c-2.557-1.441-4.02-3.301-4.103-5.243.025-.92.273-1.822.723-2.63a5.862 5.862 0 0 1 1.87-2.02m-.072-1.232c-5.089 3.487-4.756 8.684 1.059 11.962a23.273 23.273 0 0 0 11.177 2.616 24.416 24.416 0 0 0 10.013-2.011l-22.249-12.567Z"/>
  <path fill="#fff" d="M266.141 484.04c-6.219 2.871-15.459 2.674-21.19-.604a12.164 12.164 0 0 1-1.831-1.244c11.38 5.58 20.524 1.65 20.524 1.65l-19.752-12.369 22.249 12.567Z"/>
  <path fill="#E0E0E0" d="m246.128 472.741 22.249 12.624v-2.592l-22.249-12.555v2.523Z"/>
  <path fill="#000" d="M266.141 484.04v2.581l2.236-1.256-2.236-1.325Z" opacity=".2"/>
  <path fill="#E0E0E0" d="M311.412 491.91c-7.076 3.999-7.076 10.463 0 14.462 7.075 3.999 18.55 3.999 25.626 0 7.075-3.999 7.075-10.463 0-14.462-7.076-3.999-18.551-3.999-25.626 0Z"/>
  <path fill="#F0F0F0" d="M308.403 492.329v5.056c0 2.325 1.546 4.557 4.638 6.301 6.171 3.488 16.184 3.488 22.367 0a10.614 10.614 0 0 0 3.472-2.941 5.73 5.73 0 0 0 1.19-3.36v-5.056a5.255 5.255 0 0 0-.167-1.279c0-.14-.071-.279-.119-.43a9.026 9.026 0 0 0-4.34-4.65c-5.803-3.267-14.983-3.488-21.191-.593v2.523l-2.235 1.267v-2.535a9.407 9.407 0 0 0-2.533 2.442 6.502 6.502 0 0 0-.404.662 5.58 5.58 0 0 0-.357.826 5.329 5.329 0 0 0-.321 1.767Z"/>
  <path fill="#EBEBEB" d="M319.26 483.796c5.494-1.023 11.784-.291 16.148 2.162a9.032 9.032 0 0 1 4.341 4.65c0 .151.083.291.119.43.108.418.163.848.166 1.279v5.057a5.726 5.726 0 0 1-1.189 3.359 10.637 10.637 0 0 1-3.472 2.942c-4.376 2.476-10.703 3.185-16.149 2.162l.036-22.041Z"/>
  <path fill="#FAFAFA" d="M335.408 485.958c5.791 3.278 6.148 8.463 1.059 11.962l-22.225-12.566c6.183-2.86 15.363-2.663 21.166.604Z"/>
  <path fill="#EBEBEB" d="M324.23 484.377c3.727-.09 7.413.763 10.703 2.476 2.556 1.442 4.007 3.302 4.102 5.232a5.704 5.704 0 0 1-.723 2.63 5.847 5.847 0 0 1-1.869 2.019l-19.823-11.206a24.955 24.955 0 0 1 7.622-1.162m0-1.023a24.224 24.224 0 0 0-10 2.011l22.248 12.555c5.09-3.488 4.757-8.684-1.058-11.962a23.416 23.416 0 0 0-11.19-2.604Z"/>
  <path fill="#fff" d="M336.467 496.595s6.148-4.65-.678-10.404c5.422 3.278 5.648 8.3.678 11.729l-22.225-12.566 22.225 11.241Z"/>
  <path fill="#FAFAFA" d="m311.982 486.621 22.249 12.566c-6.219 2.872-15.388 2.674-21.191-.604-5.803-3.278-6.147-8.452-1.058-11.962Z"/>
  <path fill="#EBEBEB" d="m312.053 487.853 19.788 11.16a24.65 24.65 0 0 1-7.623 1.162 22.104 22.104 0 0 1-10.702-2.476c-2.557-1.441-4.007-3.301-4.102-5.243.024-.92.272-1.821.722-2.63a5.871 5.871 0 0 1 1.87-2.02m-.072-1.232c-5.089 3.488-4.756 8.696 1.059 11.962a23.277 23.277 0 0 0 11.178 2.616 24.415 24.415 0 0 0 10.012-2.011l-22.201-12.52-.048-.047Z"/>
  <path fill="#fff" d="M334.231 499.187c-6.219 2.872-15.387 2.674-21.19-.604a13.04 13.04 0 0 1-1.832-1.232c11.38 5.568 20.537 1.639 20.537 1.639l-19.764-12.369 22.249 12.566Z"/>
  <path fill="#E0E0E0" d="m314.218 487.888 22.249 12.625v-2.593l-22.249-12.555v2.523Z"/>
  <path fill="#000" d="M334.231 499.187v2.581l2.236-1.256-2.236-1.325Z" opacity=".2"/>
  <path fill="#E0E0E0" d="M146.038 110.286c13.081 2.581 17.837 6.289 25.174 18.275 5.423 8.858 8.705 14.601 17.54 27.086l27.624 2.929-5.589 19.507s-17.017.523-26.649 1.267c-7.206.558-8.859 0-13.342-5.278-9.275-10.892-20.418-26.4-20.418-26.4l-4.34-37.386Z"/>
  <path fill="#000" d="M146.038 110.286c13.081 2.581 17.837 6.289 25.174 18.275 5.423 8.858 8.705 14.601 17.54 27.086l27.624 2.929-5.589 19.507s-17.017.523-26.649 1.267c-7.206.558-8.859 0-13.342-5.278-9.275-10.892-20.418-26.4-20.418-26.4l-4.34-37.386Z" opacity=".02"/>
  <path fill="#EBEBEB" d="m172.044 190.684 3.782 108.112s-33.867-8.137-64.213-3.127c-30.347 5.011-37.577 11.986-37.577 11.986l19.573-167.249 70.028 2.07s8.407 11.229 8.407 48.208Z"/>
  <path fill="#263238" d="M80.135 477.6c-.321 6.87-1.558 10.404-4.638 14.113a14.25 14.25 0 0 1-6.59 4.055 14.51 14.51 0 0 1-7.786.048c-5.435-1.43-11.095-5.405-12.355-11.171-1.261-5.766-.084-11.358 1.189-15.822l30.18 8.777Z"/>
  <path fill="#C8856A" d="M61.906 365.71c3.936-18.658 8.324-27.005 9.145-31.248 0 0 5.779-44.07 8.395-81.572 1.26-18.054.809-30.225 12.879-51.15l70.159 16.856c.856 9.614 7.455 75.051 4.209 131.478-2.664 46.314-6.136 61.426-6.493 69.157-.202 4.394-.107 7.3.084 13.404.083 2.464.297 4.487 1.76 6.045a43.512 43.512 0 0 0 7.955 6.161c5.458 3.487 7.967 5.429 14.21 7.602a14.84 14.84 0 0 1 3.472 1.512c.529.312.974.742 1.299 1.256.324.513.519 1.095.568 1.696 0 1.651-1.546 2.953-3.115 3.767-5.649 2.929-12.712 2.325-18.884.581-6.171-1.744-11.891-4.65-18.134-6.405-4.305-1.163-8.859-1.756-12.807-3.72a6.348 6.348 0 0 1-3.08-2.686 6.259 6.259 0 0 1-.297-3.278c.475-4.836.999-6.359.868-11.229-.119-4.65-.844-13.172-1.189-17.798-.321-3.895-5.375-31.795-4.614-49.046.212-5.276.025-10.561-.559-15.81l-6.243-61.298c-2.854 10.241-13.425 39.908-16.719 53.475-4.043 16.553-6.22 36.583-14.627 66.89-2.378 8.532-6.754 18.82-7.836 23.982-.464 6.545-2.925 23.691-6.148 30.911-4.887 10.95-19.835 10.601-21.095 1.092-1.059-8.079 4.507-29.225 4.756-34.526.25-5.301-2.437-44.361 2.081-66.099Z"/>
  <path fill="#37474F" d="M57.566 437.959c-1.19 6.824-2.236 11.997-3.032 15.949-2.26 6.743-3.14 9.998-4.412 14.38-2.093 7.161-1.689 13.578.559 17.438 3.341 5.708 16.838 11.625 23.937 4.254 5.803-5.986 5.565-8.846 5.553-17.739v-7.696c.179-7.951.322-9.498 1.653-14.543.761-2.883 0-7.277.666-10.334.666-3.325.952-4.778-.202-5.301 0 0-.594 4.254-1.332 7.335-.678 2.825-1.189 5.673-1.867 8.498-.784 3.487-1.45 6.975-2.556 10.404-.12.372-.321.826-.75.872-.427.047-.856-.535-.88-1.011a2.026 2.026 0 0 0-.11-.842 2.067 2.067 0 0 0-.448-.728 7.196 7.196 0 0 0-1.927-1.058 19.89 19.89 0 0 0-4.269-1.011 20.66 20.66 0 0 0-6.326-.244 3.76 3.76 0 0 0-1.724.663c-.452.348-.607.837-.999 1.162a.958.958 0 0 1-1.19.186.956.956 0 0 1-.273-.593 10.963 10.963 0 0 1-.071-2.418c.178-4.452.511-8.823 1.19-13.252a58.309 58.309 0 0 0 1.081-10.544 12.76 12.76 0 0 0-2.271 6.173Z"/>
  <path fill="#263238" d="m129.236 449.805 71.574 14.066c.309.736.42 1.537.322 2.326a4.59 4.59 0 0 1-.881 2.184c-2.616 2.988-11.428 6.975-22.32 5.813-10.893-1.163-16.827-5.534-20.846-8.266a30.613 30.613 0 0 0-6.742-3.708c-2.593-1.046-6.41-1.093-9.169-1.441a53.457 53.457 0 0 1-7.218-1.849 15.577 15.577 0 0 1-4.756-2.325 15.788 15.788 0 0 1-.321-3.673c.035-.919.19-2.232.357-3.127Z"/>
  <path fill="#37474F" d="M145.705 443.504c-2.236-2.325-5.232-3.592-8.253-4.848-2.556-1.081-3.258-2.069-3.341-4.731 0-.233-2.081-.082-2.378.232a3.162 3.162 0 0 0-.892 2.325c-.179 2-.44 2.93-.797 4.999-.797 4.592-1.938 6.045-1.189 11.439 3.199 3.848 13.08 5.685 18.396 6.324 8.324 1 14.971 7.533 21.214 9.486 11.463 3.58 22.701 1.662 27.053-.407 5.042-2.395 7.872-6.335 3.734-9.195-2.533-1.744-16.886-8.696-19.466-10.009-2.046-1.058-3.996-2.325-5.946-3.418a3.576 3.576 0 0 0-1.07-.453c-.465-.047-.935 0-1.38.139a40.854 40.854 0 0 0-7.337 2.383 3.297 3.297 0 0 0-1.137.622c-.333.28-.606.622-.801 1.006-.44 1.371 2.473 3.789.714 4.231-1.582.407-4.293-1.534-5.542-2.162-4.114-2.081-8.324-4.429-11.344-7.777a1.047 1.047 0 0 0-.238-.186Z"/>
  <path fill="#455A64" d="m162.365 198.345.737 6.975c6.766 38.56 7.397 89.664 6.671 105.194-2.117 45.78-8.157 126.515-8.157 126.515s-1.867 4.487-15.186 5.522c-10.25.802-16.208-2.604-16.208-2.604s-4.756-54.731-5.505-67.948a128.198 128.198 0 0 1 .368-16.961c.609-7.04.521-14.122-.261-21.146l-3.568-39.095s-13.27 54.15-14.555 60.741c-6.409 33.061-21.963 94.348-21.963 94.348s-10.833 2.79-20.584 1.104c-9.751-1.685-11.95-5.045-11.95-5.045s6.028-68.924 7.55-82.281c2.046-17.856 3.936-26.168 5.316-33.48 1.629-8.603 2.378-41.036 3.567-59.904.761-12.868 1.284-22.645 2.89-32.096 3.33-19.762 13.151-31.643 16.873-38.92l.583-3.895c11.012 8.661 52.762 14.008 73.382 2.976Z"/>
  <path fill="#37474F" d="m121.244 294.809 10.393-36.897s13.497-2.523 20.132-9.661c0 0-1.498 9.01-15.458 13.613l-9.823 32.236-1.843 37.897-3.401-37.188Z"/>
  <path fill="#263238" d="M95.797 44.373c-.274-11.916 23.461-24.947 45.734-10.463 22.273 14.485 14.186 28.47 12.641 32.725l1.51 56.962-75.451 1.732s3.567-51.347 3.365-59.73c-.202-8.38.38-20.959 12.2-21.226Z"/>
  <path fill="#FFA8A7" d="m105.584 106.88-18.301 4.766c-3.65 1.163.463 22.239-.56 46.303-1.034 24.703-8.216 64.681-8.216 64.681s17.135 6.975 47.863 6.498c30.335-.488 39.396-9.742 39.396-9.742l-4.079-29.178-2.033-22.96s10.904-14.926 4.839-29.597c-6.064-14.67-27.005-33.712-27.005-33.712l-9.406.453-22.498 2.488Z"/>
  <path fill="#fff" d="m105.584 106.88-18.301 4.766c-3.65 1.163.463 22.239-.56 46.303-1.034 24.703-8.216 64.681-8.216 64.681s17.135 6.975 47.863 6.498c30.335-.488 39.396-9.742 39.396-9.742l-4.079-29.178-2.033-22.96s10.904-14.926 4.839-29.597c-6.064-14.67-27.005-33.712-27.005-33.712l-9.406.453-22.498 2.488Z" opacity=".7"/>
  <path fill="#FFA8A7" d="M103.764 165.458a20.247 20.247 0 0 0 7.813 6.62 20.776 20.776 0 0 0 10.131 2.018 20.552 20.552 0 0 0 9.271-2.846 19.985 19.985 0 0 0 6.842-6.745s-2.105 12.381-17.29 12.66c-15.185.279-16.767-11.707-16.767-11.707Z" opacity=".3"/>
  <path fill="#E0E0E0" d="M127.345 105.113c7.563 6.173 19.335 14.473 26.315 23.39 14.104 18.041 17.171 34.642 18.289 55.613.226-31.387 4.15-48.999-34.485-81.374-6.897-5.813-9.632-7.068-9.632-7.068l-.487 9.439Z"/>
  <path fill="#F0F0F0" d="M101.909 100.975c.559 7.753 8.919 27.179 9.692 48.336.773 21.158-11.19 158.588-11.19 158.588s-22.915 2.836-39.789-6.557c0 0 5.946-49.859 19.026-105.264 3.366-14.368-2.782-32.189-4.019-51.556a80.027 80.027 0 0 1 4.126-31.085s12.272-4.011 16.018-6.138a19.522 19.522 0 0 0 6.136-6.324Z"/>
  <path fill="#EBEBEB" d="M100.994 104.73c.535 2.499 1.391 5.521 2.378 9.02 2.628 9.382 6.243 22.216 6.73 35.619.714 19.763-9.893 143.545-11.07 157.193a80.717 80.717 0 0 1-6.814.279c-8.324 0-20.109-1.163-29.99-6.312.915-7.243 7.004-53.65 18.836-104.125 2.2-9.393.463-20.169-1.38-31.573-1.058-6.58-2.164-13.381-2.604-20.391a80.485 80.485 0 0 1 3.805-29.841c2.688-.895 12.248-4.127 15.602-6.033a17.815 17.815 0 0 0 4.507-3.836Zm.915-3.755a19.517 19.517 0 0 1-6.183 6.324c-3.746 2.127-16.018 6.138-16.018 6.138a80.027 80.027 0 0 0-4.126 31.085c1.189 19.367 7.384 37.2 4.019 51.556-12.985 55.405-19.026 105.264-19.026 105.264 10.524 5.813 23.39 6.975 31.595 6.975a72.546 72.546 0 0 0 8.193-.407s11.892-137.418 11.19-158.587c-.702-21.169-9.133-40.583-9.691-48.337l.047-.011Z"/>
  <path fill="#C8856A" d="M142.256 48.058c2.236 1.639 5.185 6.754 4.757 15.368-.226 2.604 1.486 5.324 1.593 10.183.429 18.38-2.853 21.693-7.895 23.971a27.174 27.174 0 0 1-11.357 2.325l.595 8.882c3.234 5.219 3.127 8.137 2.592 14.891-16.838-4.72-29.895-15.996-29.907-16.031l-.63-20.739s-1.593-.43-1.593-.418a6.818 6.818 0 0 1-4.162 1.412 6.817 6.817 0 0 1-4.162-1.412c-3.83-2.744-6.434-9.637-3.151-13.59 3.281-3.952 9.287-2.43 11.487.965 2.199 3.395 7.444 2.325 5.743-2.871 2.378-1.163 5.327-3.615 2.914-13.171-.547-2.453.273-6.708 2.616-8.824 3.9-3.487 11.653-2.917 16.124 1.29 5.994-4.928 9.811-5.614 14.436-2.231Z"/>
  <path fill="#263238" d="m141.817 58.195-6.184-1.163c.057-.397.196-.778.409-1.12a2.97 2.97 0 0 1 .828-.873 3.063 3.063 0 0 1 2.33-.494 3.321 3.321 0 0 1 2.051 1.316c.487.679.689 1.514.566 2.334Zm-27.695 2.848 5.945-2.174a2.925 2.925 0 0 0-.601-1.037 3.008 3.008 0 0 0-.972-.72 3.071 3.071 0 0 0-2.387-.091 3.272 3.272 0 0 0-1.822 1.62 3.152 3.152 0 0 0-.163 2.402Z"/>
  <path fill="#AF6152" d="m122.208 81.875 8.799 2.674a4.269 4.269 0 0 1-.781 1.568 4.381 4.381 0 0 1-1.353 1.138 4.509 4.509 0 0 1-3.479.339 4.83 4.83 0 0 1-2.756-2.24 4.642 4.642 0 0 1-.43-3.48Z"/>
  <path fill="#FFA8A7" d="M127.416 87.78a3.985 3.985 0 0 0-1.317-2.78 4.172 4.172 0 0 0-2.94-1.066c-.336.005-.668.06-.987.162.16.822.544 1.586 1.111 2.212a4.768 4.768 0 0 0 2.112 1.345 4.445 4.445 0 0 0 2.021.128Z"/>
  <path fill="#AF6152" d="m127.69 62.926 1.795 16.356 8.289-2.464-10.084-13.892Zm1.724 36.944c-6.041-.197-19.669-3.406-22.986-11.171 0 0 .594 5.58 8.098 9.741 5.945 3.29 15.066 3.999 15.066 3.999l-.178-2.569Z"/>
  <path fill="#263238" d="M122.647 67.134a2.568 2.568 0 0 1-.534 1.416c-.317.41-.752.72-1.248.889a2.73 2.73 0 0 1-1.543.062 2.678 2.678 0 0 1-1.319-.785 2.581 2.581 0 0 1-.651-1.368 2.547 2.547 0 0 1 .234-1.492 2.622 2.622 0 0 1 1.042-1.115 2.7 2.7 0 0 1 3.342.506c.473.516.716 1.195.677 1.887Zm19.752-1.22c-.099.508-.35.977-.722 1.346a2.695 2.695 0 0 1-1.366.725 2.732 2.732 0 0 1-1.548-.138 2.664 2.664 0 0 1-1.208-.957 2.566 2.566 0 0 1-.016-2.909 2.676 2.676 0 0 1 1.197-.97 2.734 2.734 0 0 1 2.513.228c.293.189.545.432.742.716a2.566 2.566 0 0 1 .408 1.959Z"/>
  <path fill="#E0E0E0" d="M90.683 109.472c3.02-1.313 6.445-5.01 8.217-7.067 1.772-2.058 2.379-3.488 3.568-3.488v3.708s9.608 21.309 9.513 39.967c.214 12.787-1.189 27.818-1.189 27.818-3.936-9.044-13.08-23.924-13.08-23.924l4.994-11.706c-2.997-11.578-9.835-19.1-12.023-25.308Z"/>
  <path fill="#455A64" d="M104.24 173.514a1.057 1.057 0 0 0-.781-.098c-.263.07-.487.239-.622.47a.986.986 0 0 0-.101.763c.072.258.245.477.481.609l.892.5a.48.48 0 0 0 .511 0 1.557 1.557 0 0 0 .726-1.232.517.517 0 0 0-.214-.465l-.892-.5v-.047Z"/>
  <path fill="#37474F" d="M105.346 174.479a.519.519 0 0 0-.214-.465l-.892-.5a1.024 1.024 0 0 0-.999 0c.273-.104.701.14 1.189.419.487.279.737.639.345 1.372-.286.534-.619.476-.773.406l.095.059a.487.487 0 0 0 .511 0c.222-.14.405-.33.534-.555a1.54 1.54 0 0 0 .204-.736Z"/>
  <path fill="#FFA8A7" d="M108.521 173.456a3.255 3.255 0 0 0-3.661.11 3.125 3.125 0 0 0-1.266 2.139 3.078 3.078 0 0 0 .719 2.37c.278.327.621.594 1.009.787a1.608 1.608 0 0 0 1.593-.163 4.9 4.9 0 0 0 1.599-1.641 4.77 4.77 0 0 0 .661-2.172c.03-.274-.015-.55-.13-.801a1.574 1.574 0 0 0-.524-.629Z"/>
  <path fill="#FFA8A7" d="M106.868 173.607a4.93 4.93 0 0 0-1.599 1.648 4.805 4.805 0 0 0-.661 2.177c-.028.273.017.549.132.8s.295.468.522.63l19.728 11.137a1.606 1.606 0 0 0 1.594-.152 4.914 4.914 0 0 0 1.598-1.647 4.793 4.793 0 0 0 .661-2.177 1.543 1.543 0 0 0-.654-1.43l-19.668-11.137a1.612 1.612 0 0 0-1.653.151Z"/>
  <path fill="#fff" d="M106.868 173.607a4.93 4.93 0 0 0-1.599 1.648 4.805 4.805 0 0 0-.661 2.177c-.028.273.017.549.132.8s.295.468.522.63l19.728 11.137a1.606 1.606 0 0 0 1.594-.152 4.914 4.914 0 0 0 1.598-1.647 4.793 4.793 0 0 0 .661-2.177 1.543 1.543 0 0 0-.654-1.43l-19.668-11.137a1.612 1.612 0 0 0-1.653.151Z" opacity=".2"/>
  <path fill="#FFA8A7" d="M130.08 186.651a4.916 4.916 0 0 1-.676 2.237 5.034 5.034 0 0 1-1.643 1.692 1.682 1.682 0 0 1-1.641.163l-1.522-.861a1.596 1.596 0 0 1-.542-.642 1.563 1.563 0 0 1-.136-.822 4.95 4.95 0 0 1 .706-2.245 5.072 5.072 0 0 1 1.672-1.685c.235-.165.511-.267.799-.295.287-.029.578.017.842.133l1.522.86c.225.17.401.395.509.652.109.257.146.537.11.813Z"/>
  <path fill="#fff" d="M130.08 186.651a4.916 4.916 0 0 1-.676 2.237 5.034 5.034 0 0 1-1.643 1.692 1.682 1.682 0 0 1-1.641.163l-1.522-.861a1.596 1.596 0 0 1-.542-.642 1.563 1.563 0 0 1-.136-.822 4.95 4.95 0 0 1 .706-2.245 5.072 5.072 0 0 1 1.672-1.685c.235-.165.511-.267.799-.295.287-.029.578.017.842.133l1.522.86c.225.17.401.395.509.652.109.257.146.537.11.813Z" opacity=".35"/>
  <path fill="#FFA8A7" d="M125.442 189.266a4.95 4.95 0 0 1 .706-2.244 5.072 5.072 0 0 1 1.672-1.685 1.437 1.437 0 0 1 1.641-.156c.256.145.459.365.581.629.121.263.155.557.097.841a4.904 4.904 0 0 1-.676 2.237 5.034 5.034 0 0 1-1.643 1.692 1.682 1.682 0 0 1-1.641.163 1.61 1.61 0 0 1-.578-.639 1.56 1.56 0 0 1-.159-.838Z"/>
  <path fill="#000" d="M125.442 189.266a4.95 4.95 0 0 1 .706-2.244 5.072 5.072 0 0 1 1.672-1.685 1.437 1.437 0 0 1 1.641-.156c.256.145.459.365.581.629.121.263.155.557.097.841a4.904 4.904 0 0 1-.676 2.237 5.034 5.034 0 0 1-1.643 1.692 1.682 1.682 0 0 1-1.641.163 1.61 1.61 0 0 1-.578-.639 1.56 1.56 0 0 1-.159-.838Z" opacity=".15"/>
  <path fill="#FFA8A7" d="M144.48 200.612a1.368 1.368 0 0 1-.476-.553 1.332 1.332 0 0 1-.119-.714 4.291 4.291 0 0 1 .59-1.937 4.402 4.402 0 0 1 1.42-1.469 1.472 1.472 0 0 1 1.427-.14l.737.698a1.41 1.41 0 0 1 .381 1.058 3.956 3.956 0 0 1-.546 1.785 4.05 4.05 0 0 1-1.309 1.353 1.45 1.45 0 0 1-1.118.198l-.987-.279Z"/>
  <path fill="#000" d="M144.48 200.612a1.368 1.368 0 0 1-.476-.553 1.332 1.332 0 0 1-.119-.714 4.291 4.291 0 0 1 .59-1.937 4.402 4.402 0 0 1 1.42-1.469 1.472 1.472 0 0 1 1.427-.14l.737.698a1.41 1.41 0 0 1 .381 1.058 3.956 3.956 0 0 1-.546 1.785 4.05 4.05 0 0 1-1.309 1.353 1.45 1.45 0 0 1-1.118.198l-.987-.279Z" opacity=".15"/>
  <path fill="#FFA8A7" d="M143.886 199.38c.038-.682.24-1.346.589-1.937a4.402 4.402 0 0 1 1.42-1.469c.205-.143.444-.232.695-.256.25-.025.503.015.732.116l-17.837-10.044a1.425 1.425 0 0 0-1.427.128 4.411 4.411 0 0 0-1.42 1.469 4.281 4.281 0 0 0-.589 1.937c-.026.245.014.491.117.716.102.224.262.418.465.563l17.837 10.044a1.377 1.377 0 0 1-.469-.555 1.323 1.323 0 0 1-.113-.712Z"/>
  <path fill="#FFA8A7" d="M148.131 196.59a1.278 1.278 0 0 0-1.284.116c-.525.336-.96.788-1.272 1.319a3.827 3.827 0 0 0-.524 1.739 1.2 1.2 0 0 0 .097.652c.092.205.239.381.426.51 1.189.639 4.578 1.86 6.267 1.662a.622.622 0 0 0 .262-.081c.197-.128.361-.3.477-.502.116-.202.18-.429.188-.66a.508.508 0 0 0 0-.245c-.689-1.569-3.519-3.871-4.637-4.51Z"/>
  <path fill="#fff" d="M128.106 185.883a3.226 3.226 0 0 0-.571.419l17.837 10.055c.179-.154.369-.294.571-.418h.107l-17.837-10.044-.107-.012Zm-1.189-1.674h-.179l-17.551-9.916c-2.295-1.302-3.247-1.267-4.174-.744.915-.325 3.008.872 3.282 1.023l17.706 9.998.214-.128 1.522.848c.221-.118.457-.207.702-.267l-1.522-.814Zm25.733 17.612-.274-.535s0-.407-1.094-1.557a18.776 18.776 0 0 0-4.459-3.023 2.902 2.902 0 0 0-.654.512 25.534 25.534 0 0 1 4.756 3.01c.604.5 1.146 1.065 1.618 1.686 0 0 .118-.058.13-.093h-.023Z" opacity=".2"/>
  <path fill="#455A64" d="m151.912 202.123.737.419c.321.174 1.19.465 1.368.209.178-.256-.559-.872-.88-1.058l-.737-.407s-.179 0-.381.337c-.202.338-.107.5-.107.5Z"/>
  <path fill="#263238" d="M153.946 202.437a.35.35 0 0 0-.214.151.355.355 0 0 0 0 .268c.154 0 .273 0 .321-.105.047-.105-.024-.186-.107-.314Z"/>
  <path fill="#C8856A" d="M55.58 195.323c-.392-7.08 1.19-26.912 2.818-45.524 2.26-25.574 7.016-29.201 20.584-34.223 11.226 5.963 13.39 17.367 9.204 43.012l-3.567 29.83c7.29 1.511 17.195 3.487 25.554 1.162a12.235 12.235 0 0 0 4.626-2.441 8.68 8.68 0 0 1 2.699-1.384l1.796 1.035c1.189.105 2.462.291 3.639.337 2.711.105 6.516 0 9.239.151 5.946.349 10.405.698 15.828 3.011 1.022.442 2.307 1.221 3.567 1.942.975.534 0 1.615-.606 1.987a6.775 6.775 0 0 1-2.497.907c-1.189.12-2.388.089-3.568-.093a1.705 1.705 0 0 0-.939.116 1.16 1.16 0 0 0-.488.744 7.47 7.47 0 0 0-.071.884 4.757 4.757 0 0 1-.678 2.098 4.88 4.88 0 0 1-1.558 1.587c-.535.325-1.118.546-1.665.86a5.556 5.556 0 0 0-1.617 1.651c-.594.756-1.189 1.546-1.783 2.325-2.105 2.534-3.045 2.674-7.433 3.732-4.387 1.057-7.562-.431-13.794 0-6.231.43-28.67 3.987-38.801 4.266-18.86.407-19.787-5.255-20.489-17.972Z"/>
  <path fill="#F28F8F" d="M84.572 188.394c-7.599-1.383-15.733-1.069-20.513 2.325 7.836-8.207 20.822-4.824 20.822-4.824l-.31 2.499Z"/>
  <path fill="#E0E0E0" d="M79.708 113.437c-9.74 2.615-18.099 7.998-20.216 17.286-2.116 9.288-4.483 36.549-4.91 50.324-.429 13.776 0 25.006 2.853 28.4 2.854 3.395 5.886 4.72 13.866 4.708 7.979-.011 24.52-1.639 24.52-1.639s-3.033-14.299 2.093-22.018l-11.797-2.534s4.186-34.386 5.137-42.559c.952-8.172.619-22.692-11.546-31.968Z"/>
  <path fill="#FFA8A7" d="m245.569 130.363-62.014 14.077-24.341 67.623 1.177 1.523 59.088-14.52 27.267-67.169-1.177-1.534Z"/>
  <path fill="#000" d="m184.734 145.975-24.341 67.611-1.178-1.523 24.342-67.623 1.177 1.535Z" opacity=".35"/>
  <path fill="#000" d="m246.746 131.897-62.013 14.078-24.342 67.611 59.088-14.52 27.267-67.169Z" opacity=".25"/>
  <path fill="#000" d="M227.149 144.161s.333-1.023.761-2.325c.428-1.302-3.163-.965-8.003.651l-11.13 2.023c-4.828 1.616-9.347 2.72-9.763 3.976l-.761 2.325 28.896-6.65Z" opacity=".1"/>
  <path fill="#37474F" d="M231.894 134.013c.262-.779-1.118-.767-3.08-.477l-3.567.767s1.783-3.22-6.588-1.953c-9.216 1.395-9.906 5.743-9.906 5.743a42.606 42.606 0 0 1-4.483 1.058c-3.068.628-3.472 1.162-3.805 1.941l-.606 1.43 31.607-7.161s.166-.558.428-1.348Z"/>
  <path fill="#37474F" d="M228.184 138.128c-2.949.942-4.198 1.43-4.84 3.36-.737 2.22-.951 3.15-.951 3.15l-16.529 4.383s1.189-3.244 1.569-4.325c.381-1.081-1.748-1.337-4.637-.395l.975-2.697 25.638-6.278-1.225 2.802Z"/>
  <path fill="#37474F" d="m227.958 144.289.761-2.325c.416-1.255-3.163-.965-7.991.651l-11.131 2.128c-4.839 1.615-9.358 2.72-9.774 3.975l-.761 2.267 28.896-6.696Z"/>
  <path fill="#C8856A" d="M238.03 162.994c2.116-2.325 1.986-2.627 1.189-4.011a7.959 7.959 0 0 0-2.567-2.728 8.177 8.177 0 0 0-3.557-1.282c-2.236-.186-4.495-.489-5.72 0-1.225.488-.523 2.941 2.378 3.917 4.46 1.523 4.293 2.744 4.293 2.744a60.65 60.65 0 0 0-5.898-1.779c-1.689-.291-4.887.151-6.861.221-1.974.07-2.652 2.476.535 3.697l-3.568.151c-2.532.104-3.567 1.29-1.76 3.022.572.589 1.331.97 2.153 1.081 0 0-2.652-.302-2.807.547-.451 2.453 1.106 3.29 6.267 5.417 4.067 1.674 5.554 3.987 5.256 5.719l-.404 1s1.76-1.081 3.734-2.104c1.451-.756 2.711-1.639 2.378-3.755 0 0 2.902.384 3.294-1.348a8.916 8.916 0 0 0-.25-3.86 3.175 3.175 0 0 0 1.38-1.089 3.073 3.073 0 0 0 .57-1.643 4.94 4.94 0 0 0-.689-3.22l.654-.697Z"/>
  <path fill="#AF6152" d="M221.822 163.807a17.05 17.05 0 0 1 3.258 0c1.066.29 2.081.737 3.009 1.326a39.049 39.049 0 0 1 5.268 3.592 37.23 37.23 0 0 1-5.744-2.79 17.483 17.483 0 0 0-2.711-1.43c-.94-.233-2.057-.384-3.08-.698Zm-3.223 4.255a7.169 7.169 0 0 1 3.496.303c1.111.365 2.182.837 3.199 1.406a32.729 32.729 0 0 1 5.684 3.871c-2.14-.895-4.138-1.988-6.148-3.069a18.481 18.481 0 0 0-6.231-2.511Z"/>
  <path fill="#455A64" d="M180.678 80.805h13.009c5.338 8.828 13.874 15.373 23.916 18.338a42.716 42.716 0 0 0 30.301-2.328c9.444-4.463 16.829-12.231 20.691-21.766a40.045 40.045 0 0 0 .158-29.713c-3.759-9.574-11.061-17.417-20.457-21.976a42.707 42.707 0 0 0-30.275-2.637c-10.072 2.862-18.678 9.32-24.11 18.092-5.432 8.773-7.295 19.22-5.219 29.273l-9.632 8.532c-.416.302-.72.727-.866 1.213a2.276 2.276 0 0 0 .057 1.477c.183.474.519.876.957 1.146.438.27.954.392 1.47.35Zm35.21-55.962a39.162 39.162 0 0 1 26.589-.349l4.091 1.674c8.988 4.28 15.923 11.806 19.343 20.99a36.908 36.908 0 0 1-1.013 28.234c-4.07 8.928-11.528 15.96-20.8 19.614a39.374 39.374 0 0 1-28.9-.03l-3.983-1.848c-6.466-3.445-11.787-8.628-15.334-14.937a36.986 36.986 0 0 1-4.679-20.662c.492-7.183 3.078-14.077 7.453-19.868 4.375-5.79 10.355-10.235 17.233-12.806v-.012Z"/>
  <path fill="#fff" d="M215.888 24.831a39.162 39.162 0 0 1 26.589-.348l4.091 1.685c8.988 4.28 15.923 11.806 19.343 20.99a36.908 36.908 0 0 1-1.013 28.234c-4.07 8.927-11.528 15.96-20.8 19.614a39.374 39.374 0 0 1-28.9-.03l-3.983-1.848c-6.466-3.445-11.787-8.628-15.334-14.937a36.986 36.986 0 0 1-4.679-20.662c.492-7.183 3.078-14.077 7.453-19.868 4.375-5.79 10.355-10.235 17.233-12.806v-.024Z"/>
  <path fill="#FFA8A7" d="M222.583 67.007v13.926h14.258V67.006h14.246V53.069h-14.246V39.142h-14.258v13.926h-14.246v13.939h14.246Z"/>
</svg>
